<svg xmlns="http://www.w3.org/2000/svg" xmlns:xlink="http://www.w3.org/1999/xlink" width="256" zoomAndPan="magnify" viewBox="0 0 192 225.75" height="301" preserveAspectRatio="xMidYMid meet" version="1.0"><defs><clipPath id="052afff830"><path d="M 0.105469 0 L 191.894531 0 L 191.894531 225.5 L 0.105469 225.5 Z M 0.105469 0 " clip-rule="nonzero"/></clipPath><clipPath id="c441a6c6fb"><path d="M 0.105469 11 L 43 11 L 43 69 L 0.105469 69 Z M 0.105469 11 " clip-rule="nonzero"/></clipPath><clipPath id="2c6d1f6bd2"><path d="M 0.105469 21 L 23 21 L 23 38 L 0.105469 38 Z M 0.105469 21 " clip-rule="nonzero"/></clipPath><clipPath id="5e7f37ff62"><path d="M 128 107 L 191.617188 107 L 191.617188 156 L 128 156 Z M 128 107 " clip-rule="nonzero"/></clipPath><clipPath id="62778edb7d"><path d="M 89 185 L 149 185 L 149 224.816406 L 89 224.816406 Z M 89 185 " clip-rule="nonzero"/></clipPath><clipPath id="06e11cca2b"><path d="M 70.175781 13.644531 L 85.789062 13.644531 L 85.789062 33.941406 L 70.175781 33.941406 Z M 70.175781 13.644531 " clip-rule="nonzero"/></clipPath><clipPath id="f244f55a3a"><path d="M 70.175781 28 L 85 28 L 85 33.941406 L 70.175781 33.941406 Z M 70.175781 28 " clip-rule="nonzero"/></clipPath><clipPath id="b7e887bc1f"><path d="M 17.507812 34.109375 L 33.117188 34.109375 L 33.117188 54.40625 L 17.507812 54.40625 Z M 17.507812 34.109375 " clip-rule="nonzero"/></clipPath><clipPath id="b7fb40adc9"><path d="M 17.507812 34.109375 L 33 34.109375 L 33 54.40625 L 17.507812 54.40625 Z M 17.507812 34.109375 " clip-rule="nonzero"/></clipPath><clipPath id="aa1456de81"><path d="M 18 34.109375 L 32 34.109375 L 32 52 L 18 52 Z M 18 34.109375 " clip-rule="nonzero"/></clipPath><clipPath id="f46546c7ae"><path d="M 32.933594 131.316406 L 48.542969 131.316406 L 48.542969 151.613281 L 32.933594 151.613281 Z M 32.933594 131.316406 " clip-rule="nonzero"/></clipPath><clipPath id="2a2269c81b"><path d="M 33 131.316406 L 48.542969 131.316406 L 48.542969 151.613281 L 33 151.613281 Z M 33 131.316406 " clip-rule="nonzero"/></clipPath><clipPath id="2f14b7e692"><path d="M 119.070312 187.085938 L 134.683594 187.085938 L 134.683594 207.382812 L 119.070312 207.382812 Z M 119.070312 187.085938 " clip-rule="nonzero"/></clipPath><clipPath id="756d9f4e3c"><path d="M 119.070312 201 L 134 201 L 134 207 L 119.070312 207 Z M 119.070312 201 " clip-rule="nonzero"/></clipPath><clipPath id="b52202c806"><path d="M 120 187.085938 L 134 187.085938 L 134 205 L 120 205 Z M 120 187.085938 " clip-rule="nonzero"/></clipPath><clipPath id="6a8cbe7e99"><path d="M 149.570312 112.410156 L 165.183594 112.410156 L 165.183594 132.703125 L 149.570312 132.703125 Z M 149.570312 112.410156 " clip-rule="nonzero"/></clipPath><clipPath id="b84423ea7a"><path d="M 149.570312 112.410156 L 165 112.410156 L 165 132.703125 L 149.570312 132.703125 Z M 149.570312 112.410156 " clip-rule="nonzero"/></clipPath><clipPath id="316736f208"><path d="M 80.460938 79.90625 L 96.074219 79.90625 L 96.074219 100.203125 L 80.460938 100.203125 Z M 80.460938 79.90625 " clip-rule="nonzero"/></clipPath><clipPath id="cb94dfed07"><path d="M 80.460938 80 L 96 80 L 96 100 L 80.460938 100 Z M 80.460938 80 " clip-rule="nonzero"/></clipPath></defs><g clip-path="url(#052afff830)"><path fill="#ffffff" d="M 0.105469 0 L 191.894531 0 L 191.894531 225.5 L 0.105469 225.5 Z M 0.105469 0 " fill-opacity="1" fill-rule="nonzero"/></g><path fill="#008000" d="M 16.746094 64.085938 C 15.785156 63.6875 15.308594 63.664062 13.78125 63.941406 C 11.621094 64.332031 10.007812 64.046875 7.875 62.882812 C 5.871094 61.792969 4.695312 60.386719 4.695312 59.078125 C 4.695312 58.503906 4.484375 57.625 4.222656 57.121094 L 3.75 56.207031 L 5.410156 54.53125 C 6.320312 53.609375 7.070312 52.644531 7.070312 52.382812 C 7.070312 52.125 6.785156 51.238281 6.441406 50.410156 C 5.933594 49.183594 5.585938 48.792969 4.574219 48.316406 C 3.082031 47.617188 2.847656 47.339844 2.265625 45.605469 C 2.015625 44.871094 1.726562 44.066406 1.617188 43.8125 C 1.460938 43.453125 1.867188 43.222656 3.578125 42.71875 C 4.765625 42.371094 6.203125 41.769531 6.773438 41.386719 C 7.925781 40.609375 8.8125 39.070312 8.832031 37.800781 C 8.855469 36.457031 9.296875 35.960938 11.28125 35.066406 C 12.691406 34.425781 13.546875 34.230469 14.777344 34.265625 C 17.425781 34.34375 18.859375 34.058594 19.808594 33.257812 C 20.972656 32.28125 21.195312 30.976562 20.546875 28.921875 C 20.257812 28.007812 20.117188 26.960938 20.222656 26.539062 C 20.324219 26.128906 21.21875 24.820312 22.207031 23.636719 C 24.671875 20.6875 25.011719 19.984375 24.53125 18.828125 C 24.183594 17.988281 24.210938 17.882812 24.878906 17.453125 C 25.277344 17.195312 25.980469 16.617188 26.441406 16.167969 C 26.902344 15.71875 27.320312 15.347656 27.367188 15.347656 C 27.417969 15.347656 27.515625 16.058594 27.589844 16.929688 C 27.679688 18.046875 27.953125 18.816406 28.515625 19.554688 C 28.953125 20.125 29.308594 20.746094 29.308594 20.929688 C 29.308594 21.296875 30.230469 21.855469 31.304688 22.140625 L 31.996094 22.328125 L 31.128906 23.511719 C 29.5 25.734375 28.824219 29.394531 29.863281 30.390625 C 30.167969 30.683594 30.710938 31.816406 31.066406 32.910156 C 31.425781 34 31.980469 35.222656 32.292969 35.625 C 33.042969 36.574219 33.019531 36.890625 32.164062 37.449219 C 31.671875 37.773438 31.109375 37.855469 30.296875 37.726562 C 29.421875 37.585938 29.035156 37.65625 28.734375 38.019531 C 28.089844 38.796875 28.5625 41.320312 29.824219 43.824219 L 30.941406 46.050781 L 32.535156 46.210938 C 33.765625 46.332031 34.269531 46.542969 34.757812 47.128906 C 37.324219 50.214844 38.539062 52 38.769531 53.03125 C 39.078125 54.398438 38.820312 54.511719 37.464844 53.613281 C 36.117188 52.71875 35.019531 52.835938 34.410156 53.933594 C 33.324219 55.898438 33.34375 55.886719 32.144531 55.3125 C 31.105469 54.816406 31.027344 54.820312 29.867188 55.414062 C 29.152344 55.777344 27.800781 56.09375 26.539062 56.195312 C 24.257812 56.378906 23.378906 56.675781 23.378906 57.273438 C 23.378906 57.480469 22.84375 58.753906 22.191406 60.105469 C 21.539062 61.453125 21.007812 62.882812 21.007812 63.285156 C 21.007812 64.566406 18.878906 64.96875 16.746094 64.085938 Z M 16.746094 64.085938 " fill-opacity="1" fill-rule="evenodd"/><g clip-path="url(#c441a6c6fb)"><path stroke-linecap="butt" transform="matrix(0.665642, 0, 0, 0.665812, -86.753579, -139.600709)" fill="none" stroke-linejoin="miter" d="M 155.488482 305.922328 C 154.044858 305.323904 153.328913 305.288703 151.034371 305.705253 C 147.789149 306.291943 145.365502 305.863659 142.161359 304.115323 C 139.150873 302.478458 137.384486 300.366374 137.384486 298.400963 C 137.384486 297.538529 137.067593 296.218476 136.67441 295.461646 L 135.964335 294.088792 L 138.458402 291.571892 C 139.825738 290.187303 140.95247 288.738179 140.95247 288.345097 C 140.95247 287.957882 140.524077 286.626095 140.007658 285.382313 C 139.244767 283.540106 138.72248 282.953416 137.202566 282.237655 C 134.960839 281.18748 134.608736 280.77093 133.734345 278.166026 C 133.358768 277.063049 132.924507 275.854468 132.760191 275.473119 C 132.525456 274.933365 133.135769 274.587218 135.706125 273.830388 C 137.490117 273.308233 139.649686 272.404731 140.506472 271.829775 C 142.237648 270.662262 143.569774 268.350703 143.599116 266.443961 C 143.634326 264.425748 144.297455 263.680651 147.278599 262.337131 C 149.397089 261.37496 150.682268 261.081615 152.530812 261.134417 C 156.509583 261.251755 158.663284 260.823471 160.089304 259.620757 C 161.838085 258.154032 162.172584 256.194487 161.19843 253.108498 C 160.764169 251.735644 160.552907 250.163315 160.711353 249.52969 C 160.863932 248.913665 162.207794 246.948254 163.692498 245.170583 C 167.395454 240.741074 167.906005 239.685032 167.184192 237.94843 C 166.661905 236.687047 166.702984 236.52864 167.706479 235.883281 C 168.305056 235.496066 169.361367 234.627765 170.053837 233.953071 C 170.746308 233.278378 171.374226 232.721022 171.444647 232.721022 C 171.520936 232.721022 171.667646 233.788798 171.779145 235.097117 C 171.914118 236.77505 172.324906 237.930829 173.169954 239.039673 C 173.827215 239.896241 174.361238 240.829078 174.361238 241.104822 C 174.361238 241.65631 175.74618 242.495277 177.359988 242.923561 L 178.398694 243.205172 L 177.09591 244.982842 C 174.64879 248.321108 173.633558 253.818393 175.19455 255.314453 C 175.652285 255.75447 176.467992 257.455871 177.002016 259.098603 C 177.541908 260.735468 178.37522 262.571807 178.844692 263.176098 C 179.971423 264.601755 179.936213 265.076973 178.651035 265.91594 C 177.911617 266.402893 177.066568 266.526098 175.845942 266.33249 C 174.531422 266.121282 173.950451 266.226886 173.498585 266.772507 C 172.530299 267.94002 173.240375 271.730037 175.135867 275.49072 L 176.814227 278.834853 L 179.208532 279.075396 C 181.057076 279.25727 181.814099 279.574082 182.547648 280.454117 C 186.403184 285.088968 188.228254 287.770141 188.574489 289.319002 C 189.038093 291.372417 188.650779 291.542557 186.614446 290.19317 C 184.58985 288.84965 182.940831 289.025657 182.025361 290.674256 C 180.393948 293.625307 180.42329 293.607706 178.621693 292.745272 C 177.0607 292.000175 176.943332 292.006042 175.200419 292.897811 C 174.126503 293.443433 172.096038 293.918652 170.200547 294.071191 C 166.773405 294.346935 165.453016 294.79282 165.453016 295.690455 C 165.453016 296.001401 164.649046 297.91401 163.669024 299.943957 C 162.689002 301.968038 161.890901 304.115323 161.890901 304.719614 C 161.890901 306.643957 158.692626 307.248247 155.488482 305.922328 Z M 155.488482 305.922328 " stroke="#000000" stroke-width="1" stroke-opacity="1" stroke-miterlimit="4"/></g><path stroke-linecap="butt" transform="matrix(0.665642, 0, 0, 0.665812, -86.753579, -139.600709)" fill-opacity="1" fill="#008000" fill-rule="evenodd" stroke-linejoin="miter" d="M 190.158956 285.399913 C 189.900747 285.21804 188.545147 283.62811 187.14847 281.862173 C 183.938458 277.808145 181.890388 276.188881 180.42329 276.558496 C 179.824714 276.705168 179.044217 276.716902 178.686245 276.576096 C 177.929222 276.288618 175.945705 271.982314 175.529049 269.729425 L 175.247366 268.198164 L 176.327151 269.213138 C 177.048963 269.893698 177.706223 270.140108 178.298931 269.952367 C 179.390452 269.60622 182.8352 265.933541 182.8352 265.123909 C 182.8352 264.795362 182.260097 263.73932 181.55589 262.771282 C 180.857551 261.803243 179.930345 259.914102 179.501952 258.564715 C 179.079427 257.215328 178.22851 255.332053 177.612329 254.381616 C 176.749675 253.038096 176.556018 252.287132 176.761412 251.049217 C 177.078305 249.083805 178.386957 247.247466 179.595846 247.065592 C 180.681499 246.907186 182.389202 248.878464 182.389202 250.292387 C 182.389202 252.23433 184.407929 252.955959 186.238868 251.676975 C 186.984155 251.154821 187.207154 250.409725 187.389074 247.922159 C 187.617941 244.748166 188.187175 243.257974 190.751664 239.186346 C 191.526292 237.960164 192.388946 235.953684 192.676497 234.727502 C 192.964048 233.50132 193.292678 232.198868 193.398309 231.835121 C 193.527414 231.412704 193.996886 231.934858 194.665883 233.23731 C 195.868903 235.589936 197.652895 237.185733 199.043705 237.162265 C 199.560123 237.150532 201.074169 236.557975 202.400426 235.842213 C 203.726683 235.132318 204.953178 234.633632 205.123361 234.739236 C 205.299413 234.84484 205.551754 235.496066 205.686727 236.176626 C 206.373329 239.602896 209.254711 240.829078 211.021097 238.452983 C 211.866146 237.314805 211.866146 237.220934 211.109123 235.94195 C 210.381443 234.709901 210.381443 234.539761 211.056308 233.57759 C 211.754647 232.580217 211.731173 232.486346 210.451863 231.318833 C 209.518789 230.468133 209.119738 229.687835 209.119738 228.725664 C 209.119738 226.543177 210.193654 226.543177 214.342609 228.71393 C 218.708694 231.002021 219.166429 231.436171 218.5033 232.66822 C 218.245091 233.155173 218.02796 235.43153 218.02796 237.719621 C 218.02796 240.958149 217.857777 242.125662 217.253332 242.98223 C 215.651261 245.25272 217.00686 253.131966 219.142955 253.947465 C 219.542006 254.100004 220.686343 253.90053 221.695707 253.501581 C 222.70507 253.108498 223.608803 252.862089 223.708566 252.955959 C 223.80246 253.049829 223.239094 254.258411 222.458598 255.642999 C 220.557238 259.010599 220.193398 262.859285 221.50205 265.810336 C 222.646387 268.403505 229.042936 275.115239 231.531135 276.341421 C 232.558104 276.845974 234.060413 277.83748 234.870252 278.547375 L 236.343219 279.832226 L 231.531135 280.049301 C 227.34697 280.237042 226.478448 280.149038 224.870508 279.374608 L 223.027832 278.482839 L 221.68397 279.439143 C 219.958662 280.671192 219.12535 280.641858 216.114864 279.263136 C 214.753396 278.641245 212.605564 278.013487 211.343859 277.860947 C 209.278184 277.614538 208.967159 277.432664 208.321636 276.083277 C 207.406167 274.158934 206.226619 273.877323 202.758398 274.757358 C 201.10938 275.173908 199.923964 275.279512 199.835938 275.027235 C 199.577729 274.288006 196.925214 274.569617 195.411169 275.496587 C 194.607199 275.98354 193.339626 277.338793 192.588471 278.50044 C 191.35024 280.418916 191.250477 280.858933 191.479345 283.182225 C 191.731686 285.734327 191.408924 286.268215 190.158956 285.399913 Z M 190.158956 285.399913 " stroke="#000000" stroke-width="1" stroke-opacity="1" stroke-miterlimit="4"/><path stroke-linecap="butt" transform="matrix(0.665642, 0, 0, 0.665812, -86.753579, -139.600709)" fill-opacity="1" fill="#008000" fill-rule="evenodd" stroke-linejoin="miter" d="M 228.362203 254.017868 C 228.068783 253.724523 227.828179 253.214103 227.828179 252.885556 C 227.828179 252.55701 227.335234 251.794313 226.730789 251.195889 C 225.469084 249.928639 223.526646 249.764366 221.613549 250.755872 C 220.615922 251.272159 220.246213 251.295626 219.905846 250.867343 C 219.060798 249.823035 219.043192 246.748779 219.858899 243.639322 C 220.310766 241.926188 220.680474 239.532493 220.686343 238.318045 C 220.692211 237.109463 220.938684 234.956311 221.232104 233.536521 C 221.748522 231.019622 221.730917 230.919884 220.598317 229.723037 C 219.45398 228.520322 217.576094 223.779868 217.576094 222.107801 C 217.576094 221.045892 219.219244 218.916208 220.034951 218.916208 C 220.36945 218.916208 221.349471 219.326891 222.212125 219.837311 C 223.250831 220.447469 224.905718 220.846418 227.12984 221.016558 L 230.474825 221.268835 L 231.378557 219.156751 C 232.945418 215.513406 234.629648 214.756576 242.44048 214.222688 C 244.723286 214.070149 247.974376 213.553862 249.676211 213.08451 C 251.372177 212.615158 252.833407 212.227942 252.921433 212.227942 C 253.009459 212.227942 253.308747 213.00824 253.596298 213.958678 C 253.901454 214.973651 255.309869 217.021199 257.005835 218.916208 C 258.602038 220.688011 259.904822 222.307276 259.904822 222.512617 C 259.904822 223.181444 256.683073 223.50999 255.23358 222.987836 C 252.903827 222.143003 252.31112 222.33661 251.589307 224.17295 C 251.137441 225.322862 250.315866 226.232232 249.01895 227.018396 C 247.311248 228.045104 247.076512 228.402984 246.783092 230.333194 C 246.2432 233.888535 246.342963 234.662966 247.610536 236.669446 C 249.224344 239.233281 249.01895 240.359726 246.818303 240.97575 C 244.911074 241.509638 243.8665 242.624349 243.8665 244.126275 C 243.8665 245.018044 243.696317 245.088447 242.11185 244.877238 C 238.67884 244.41962 234.887857 247.200531 233.637889 251.096152 C 232.763498 253.830127 229.805828 255.466992 228.362203 254.017868 Z M 228.362203 254.017868 " stroke="#000000" stroke-width="1" stroke-opacity="1" stroke-miterlimit="4"/><path stroke-linecap="butt" transform="matrix(0.665642, 0, 0, 0.665812, -86.753579, -139.600709)" fill-opacity="1" fill="#008000" fill-rule="evenodd" stroke-linejoin="miter" d="M 259.898953 280.371981 C 257.53399 278.535641 249.558843 278.160159 246.501409 279.744222 C 245.808939 280.102103 244.805443 280.395448 244.271419 280.395448 C 242.663479 280.395448 237.780975 277.737743 235.586196 275.66086 C 234.447727 274.587218 233.362074 273.71305 233.168417 273.71305 C 232.97476 273.71305 231.44311 272.657008 229.764749 271.36629 C 228.08052 270.081439 226.167423 268.67925 225.504295 268.250966 C 223.332989 266.854644 222.235599 261.069881 223.544251 257.936957 C 224.371694 255.959812 224.676851 255.824873 226.736657 256.564102 C 227.704942 256.904382 229.436119 257.197727 230.592192 257.203594 C 233.162549 257.232929 233.966519 256.481966 235.163672 252.961826 C 235.885484 250.843875 236.407771 250.151581 238.438236 248.655522 C 240.779725 246.924786 240.897093 246.889585 242.546112 247.42934 C 244.811312 248.180303 245.462703 247.840023 245.80307 245.716205 C 246.055411 244.138009 246.284279 243.868132 247.757246 243.392913 C 249.998972 242.671284 250.896837 241.814717 251.501281 239.808237 C 251.964884 238.247642 251.900332 237.971898 250.568206 235.983019 C 249.341712 234.146679 249.16566 233.548255 249.353449 231.840988 C 249.500159 230.456399 249.863999 229.629166 250.532996 229.165681 C 251.061152 228.796067 252.16441 227.939499 252.974248 227.264806 C 254.194874 226.249832 254.875608 226.038624 256.941283 226.038624 C 258.314487 226.038624 260.215847 225.727678 261.172395 225.34633 C 262.211101 224.92978 263.86012 224.706838 265.297876 224.788974 L 267.692181 224.923913 L 264.558458 228.268046 C 259.576192 233.57759 259.006957 234.387222 259.006957 236.18836 C 259.006957 237.449743 259.370798 238.177239 260.632503 239.467957 L 262.252179 241.134156 L 261.524499 242.677151 C 260.356688 245.141249 260.744002 247.329602 262.592546 248.637921 C 263.015071 248.937133 263.484542 249.670495 263.631252 250.257185 C 263.907067 251.366029 266.254424 252.785819 267.762602 252.756484 C 268.214468 252.744751 269.088859 252.451406 269.699172 252.105259 C 270.315353 251.753245 271.248428 251.4599 271.782452 251.448166 C 273.085235 251.430565 275.338699 253.384243 275.602776 254.768831 C 275.855117 256.100617 275.233068 256.282491 274.82228 254.99764 C 274.628623 254.369882 274.153283 254.105871 273.226077 254.105871 C 272.122819 254.105871 271.864609 254.322947 271.647479 255.41419 C 271.289507 257.19186 270.192117 258.265503 265.890584 261.040547 C 260.673581 264.408147 259.018694 266.977849 259.012826 271.730037 C 259.012826 272.721544 258.766353 273.771719 258.472934 274.07093 C 258.050409 274.48748 258.437723 275.121105 260.251057 276.957445 C 262.639494 279.368741 263.103097 280.542121 261.870734 281.011473 C 261.019817 281.340019 261.242816 281.410422 259.898953 280.371981 Z M 259.898953 280.371981 " stroke="#000000" stroke-width="1" stroke-opacity="1" stroke-miterlimit="4"/><path stroke-linecap="butt" transform="matrix(0.665642, 0, 0, 0.665812, -86.753579, -139.600709)" fill-opacity="1" fill="#008000" fill-rule="evenodd" stroke-linejoin="miter" d="M 276.400878 251.031616 C 275.679066 249.28328 274.804675 249.048604 270.403379 249.418219 C 266.835395 249.711564 266.74737 249.693963 265.520875 248.473648 C 264.834273 247.78722 263.983356 246.666643 263.637121 245.991949 C 263.073755 244.900706 263.079623 244.58976 263.71341 243.363578 C 264.675826 241.509638 264.212223 239.19808 262.551468 237.537747 L 261.260421 236.247029 L 262.551468 234.152546 C 263.320227 232.902896 264.887089 231.336434 266.436345 230.268658 C 267.862364 229.283019 269.235569 228.021636 269.476173 227.46428 C 269.722645 226.906925 270.415116 226.326102 271.019561 226.173563 C 272.040661 225.915419 283.730503 226.648781 287.7973 227.223738 L 289.628239 227.481881 L 286.459306 230.245191 C 284.041527 232.351408 283.255163 233.319446 283.1554 234.33442 C 282.985216 236.076889 284.604893 238.241775 285.843124 237.913229 C 286.711647 237.690286 288.877084 238.417782 288.841874 238.922335 C 288.830137 239.069008 288.231561 239.87864 287.50388 240.72934 C 285.708151 242.82969 285.71402 244.636695 287.521485 245.264454 C 288.255035 245.522597 288.859479 245.786608 288.859479 245.857011 C 288.859479 245.927413 288.524981 246.760513 288.120061 247.705084 C 287.715142 248.655522 287.421723 250.087045 287.46867 250.879077 C 287.562564 252.551143 287.603643 252.539409 283.842002 251.671108 C 281.142541 251.04335 280.039283 251.113752 277.67432 252.081791 C 277.157901 252.292999 276.799929 251.999654 276.400878 251.031616 Z M 276.400878 251.031616 " stroke="#000000" stroke-width="1" stroke-opacity="1" stroke-miterlimit="4"/><path fill="#008000" d="M 6.847656 33.828125 C 6.644531 33.753906 6.476562 33.484375 6.476562 33.230469 C 6.476562 32.152344 5.71875 30.390625 4.777344 29.292969 L 3.765625 28.109375 L 4.597656 27.789062 C 5.058594 27.617188 6.769531 27.273438 8.402344 27.023438 C 10.035156 26.777344 12.207031 26.320312 13.230469 26.003906 C 15.554688 25.292969 16.175781 25.292969 17.347656 26.007812 C 18.445312 26.675781 18.890625 27.84375 19.003906 30.332031 L 19.082031 32.109375 L 16.414062 32.347656 C 14.945312 32.480469 12.675781 32.839844 11.371094 33.148438 C 8.457031 33.839844 7.332031 34.007812 6.847656 33.828125 Z M 6.847656 33.828125 " fill-opacity="1" fill-rule="evenodd"/><g clip-path="url(#2c6d1f6bd2)"><path stroke-linecap="butt" transform="matrix(0.665642, 0, 0, 0.665812, -86.753579, -139.600709)" fill="none" stroke-linejoin="miter" d="M 140.617971 260.477324 C 140.312815 260.365853 140.060474 259.961037 140.060474 259.579689 C 140.060474 257.960424 138.922005 255.314453 137.507722 253.665854 L 135.987808 251.888183 L 137.237776 251.407097 C 137.930247 251.148954 140.500604 250.632667 142.953592 250.257185 C 145.406581 249.88757 148.669408 249.201143 150.206928 248.725924 C 153.698622 247.658149 154.631697 247.658149 156.392215 248.731791 C 158.041234 249.735031 158.710231 251.489234 158.880414 255.226449 L 158.997782 257.895888 L 154.989669 258.253769 C 152.783153 258.453244 149.373616 258.992999 147.413572 259.456484 C 143.03575 260.494925 141.345652 260.747202 140.617971 260.477324 Z M 140.617971 260.477324 " stroke="#000000" stroke-width="1" stroke-opacity="1" stroke-miterlimit="4"/></g><path stroke-linecap="butt" transform="matrix(0.665642, 0, 0, 0.665812, -86.753579, -139.600709)" fill-opacity="1" fill="#008000" fill-rule="evenodd" stroke-linejoin="miter" d="M 151.198686 317.192642 C 151.198686 316.858229 152.114156 315.344569 153.229151 313.825042 C 154.344146 312.311382 155.447404 310.563046 155.688008 309.947021 C 155.952086 309.242993 156.351136 308.90858 156.744319 309.061119 C 161.069325 310.721452 164.566888 308.791242 164.566888 304.743081 C 164.566888 303.886514 165.130254 302.402188 165.945961 301.117337 C 166.702984 299.92049 167.501086 298.483099 167.712348 297.919877 C 168.029241 297.086777 168.334398 296.945972 169.367235 297.151313 C 170.159468 297.309719 171.966934 296.957705 174.167581 296.218476 C 177.395198 295.1331 177.794249 295.092031 178.821218 295.696322 C 180.411553 296.635026 182.436149 295.71979 183.433776 293.613573 C 184.472482 291.431086 184.765902 291.34895 186.420789 292.739405 C 187.670757 293.78958 188.193044 293.930385 190.475849 293.842382 C 194.167069 293.695709 194.85954 294.170928 194.85954 296.857968 C 194.85954 298.970052 194.912355 299.052189 196.755031 299.949824 C 198.679864 300.876794 206.009489 307.934675 204.513048 307.41252 C 204.06705 307.254114 203.445 307.130909 203.139844 307.130909 C 202.834687 307.130909 200.892249 306.098335 198.832443 304.836952 C 193.732808 301.715761 189.971167 299.902889 185.657897 298.483099 C 180.652157 296.828634 178.909244 296.8169 176.755543 298.436164 C 173.58661 300.812258 168.498713 305.986864 166.444775 308.90858 C 162.700739 314.241592 161.333403 315.309367 156.533057 316.623553 C 152.477996 317.738264 151.198686 317.873202 151.198686 317.192642 Z M 151.198686 317.192642 " stroke="#000000" stroke-width="1" stroke-opacity="1" stroke-miterlimit="4"/><path stroke-linecap="butt" transform="matrix(0.665642, 0, 0, 0.665812, -86.753579, -139.600709)" fill-opacity="1" fill="#ff0000" fill-rule="evenodd" stroke-linejoin="miter" d="M 338.588252 435.3872 C 337.144627 434.161018 335.395846 433.04044 334.703375 432.905502 C 332.954594 432.553488 332.71399 432.11347 332.168229 428.341054 C 331.375996 422.873103 327.92538 417.16461 325.419575 417.16461 C 324.979446 417.16461 323.899661 417.463822 323.019402 417.833437 C 320.425572 418.918813 319.621602 418.719339 318.876316 416.818463 C 317.831742 414.160758 315.672173 412.96391 311.576033 412.776169 L 308.160628 412.62363 L 307.221685 410.546747 C 306.699398 409.408569 305.367272 406.815399 304.252277 404.779585 C 302.315707 401.241845 302.257023 401.030636 302.884941 399.816188 C 303.248782 399.118027 303.677175 397.721705 303.835621 396.706731 C 304.181857 394.530112 304.68067 394.07836 305.343799 395.322143 C 306.136032 396.800602 307.456421 396.430987 308.471653 394.442108 C 308.970466 393.462336 309.704016 392.658571 310.103066 392.658571 C 310.496249 392.658571 312.450424 393.339131 314.433941 394.172231 C 316.423327 394.999464 318.365766 395.785628 318.75308 395.908833 C 319.944364 396.296049 323.682531 395.386679 326.716491 393.966889 C 329.42182 392.699639 329.644819 392.664438 330.178843 393.391933 C 330.489868 393.820217 330.753946 394.47731 330.759814 394.864525 C 330.777419 395.738693 331.939361 397.105681 333.535565 398.132388 C 334.550797 398.783614 334.68577 399.082826 334.316061 399.77512 C 333.494486 401.318115 333.805511 402.438692 335.313688 403.359796 C 336.105921 403.840881 337.285469 404.23983 337.930992 404.23983 C 339.967325 404.245697 341.950842 404.797186 342.191446 405.424944 C 342.655049 406.633525 341.88629 408.141319 340.513086 408.710408 C 338.764304 409.437903 338.23028 410.799024 338.840593 413.004978 C 339.403959 415.058393 341.240766 418.772141 341.880421 419.17109 C 342.138631 419.323629 342.831101 420.420739 343.429677 421.594119 C 344.028254 422.773366 345.624457 425.114259 346.980056 426.798059 C 348.582128 428.786938 349.444782 430.277131 349.45065 431.051561 C 349.456518 432.594556 347.555159 434.841578 345.935482 435.199459 C 345.237143 435.351999 344.204305 435.968023 343.64094 436.566447 C 343.077574 437.164871 342.302946 437.651823 341.915632 437.64009 C 341.528318 437.628356 340.031877 436.619249 338.588252 435.3872 Z M 338.588252 435.3872 " stroke="#000000" stroke-width="1" stroke-opacity="1" stroke-miterlimit="4"/><path fill="#ff0000" d="M 186.632812 151.503906 C 185.292969 150.835938 184.269531 149.480469 183.957031 147.945312 C 183.664062 146.523438 182.542969 144.378906 181.667969 143.5625 C 181.066406 143.003906 180.429688 142.839844 178.003906 142.621094 C 173.59375 142.222656 170.441406 141.390625 171.582031 140.925781 C 171.785156 140.84375 171.953125 140.457031 171.953125 140.066406 C 171.953125 139.144531 171.054688 138.910156 168.382812 139.132812 C 166.464844 139.296875 165.515625 139.636719 164.039062 140.703125 C 163.421875 141.144531 163.371094 141.125 162.925781 140.269531 C 162.671875 139.777344 162.316406 138.664062 162.136719 137.800781 C 161.695312 135.675781 161.195312 134.980469 159.804688 134.5625 C 158.808594 134.265625 158.414062 134.292969 157.253906 134.734375 L 155.878906 135.261719 L 154.203125 133.605469 C 153.28125 132.695312 152.035156 131.746094 151.429688 131.496094 C 150.535156 131.125 150.265625 130.8125 150.007812 129.851562 C 149.460938 127.824219 148.992188 127.6875 143.351562 127.933594 C 137.6875 128.183594 137.550781 128.140625 137.773438 126.164062 C 137.914062 124.921875 137.871094 124.835938 136.921875 124.351562 C 135.515625 123.640625 134.882812 123.027344 134.882812 122.375 C 134.882812 122.066406 134.273438 121.160156 133.523438 120.363281 C 132.082031 118.816406 131.949219 117.90625 133.117188 117.535156 C 134.203125 117.191406 134.585938 116.511719 134.589844 114.921875 C 134.597656 112.710938 134.816406 112.136719 135.726562 111.953125 C 136.160156 111.863281 139.089844 111.5625 142.242188 111.285156 C 147.878906 110.785156 147.980469 110.785156 148.746094 111.359375 C 149.175781 111.679688 149.578125 112.097656 149.640625 112.289062 C 149.707031 112.480469 149.03125 113.410156 148.144531 114.347656 C 147.257812 115.289062 146.378906 116.347656 146.191406 116.703125 C 145.433594 118.164062 146.011719 119.90625 147.6875 121.226562 C 149.175781 122.398438 156.289062 125.289062 162.761719 127.355469 C 165.757812 128.3125 166.765625 128.828125 172.222656 132.175781 C 173.597656 133.015625 174.9375 133.707031 175.207031 133.707031 C 175.996094 133.707031 180.28125 135.902344 181.945312 137.160156 C 184.988281 139.464844 189.09375 143.480469 189.703125 144.753906 L 190.308594 146.015625 L 189.71875 148.527344 C 189.199219 150.738281 188.542969 152.097656 187.996094 152.097656 C 187.898438 152.097656 187.285156 151.832031 186.632812 151.503906 Z M 186.632812 151.503906 " fill-opacity="1" fill-rule="evenodd"/><g clip-path="url(#5e7f37ff62)"><path stroke-linecap="butt" transform="matrix(0.665642, 0, 0, 0.665812, -86.753579, -139.600709)" fill="none" stroke-linejoin="miter" d="M 410.710818 437.217673 C 408.697959 436.214433 407.160439 434.178619 406.690968 431.872927 C 406.250838 429.737376 404.566609 426.516448 403.252089 425.290266 C 402.348356 424.451299 401.391808 424.20489 397.747535 423.876343 C 391.122118 423.277919 386.386324 422.02827 388.099895 421.330109 C 388.405051 421.206904 388.657392 420.626081 388.657392 420.039391 C 388.657392 418.654803 387.307661 418.302789 383.29368 418.637202 C 380.412298 418.883612 378.986278 419.394032 376.768025 420.995696 C 375.840819 421.658655 375.76453 421.629321 375.095533 420.34447 C 374.714087 419.60524 374.180063 417.933174 373.910117 416.636589 C 373.246989 413.444996 372.495834 412.400688 370.406686 411.772929 C 368.910245 411.327045 368.317538 411.368113 366.574624 412.031073 L 364.50895 412.823105 L 361.991409 410.335539 C 360.606467 408.968552 358.73445 407.542895 357.824849 407.167413 C 356.480986 406.610058 356.076067 406.140706 355.688753 404.697449 C 354.867178 401.652528 354.162971 401.447186 345.689009 401.816801 C 337.179838 402.192283 336.974444 402.127747 337.308942 399.159095 C 337.520204 397.293421 337.455652 397.16435 336.029632 396.436854 C 333.91701 395.369078 332.96633 394.447975 332.96633 393.468203 C 332.96633 393.004718 332.050861 391.643597 330.924129 390.44675 C 328.758692 388.123457 328.559166 386.75647 330.313816 386.199114 C 331.94523 385.682827 332.520333 384.661987 332.526201 382.274159 C 332.537938 378.953493 332.866568 378.091059 334.233904 377.815315 C 334.885295 377.680376 339.286591 377.228625 344.022385 376.812075 C 352.490478 376.061112 352.643056 376.061112 353.793262 376.923546 C 354.438785 377.404632 355.04323 378.03239 355.137124 378.319868 C 355.236887 378.607346 354.221655 380.003668 352.889529 381.411724 C 351.557404 382.825647 350.237015 384.415577 349.955332 384.949465 C 348.816863 387.143685 349.685386 389.760322 352.202927 391.743334 C 354.438785 393.503404 365.125131 397.84491 374.84906 400.9485 C 379.350119 402.38589 380.864165 403.160321 389.062311 408.188254 C 391.127986 409.449637 393.140845 410.488078 393.545765 410.488078 C 394.73118 410.488078 401.168809 413.785276 403.668745 415.674418 C 408.240224 419.135888 414.407906 425.167061 415.323376 427.07967 L 416.232977 428.974679 L 415.346849 432.747095 C 414.566353 436.06776 413.580463 438.109442 412.758887 438.109442 C 412.612178 438.109442 411.69084 437.710492 410.710818 437.217673 Z M 410.710818 437.217673 " stroke="#000000" stroke-width="1" stroke-opacity="1" stroke-miterlimit="4"/></g><path stroke-linecap="butt" transform="matrix(0.665642, 0, 0, 0.665812, -86.753579, -139.600709)" fill-opacity="1" fill="#ff0000" fill-rule="evenodd" stroke-linejoin="miter" d="M 358.047848 438.731333 C 356.962195 437.552086 354.497469 437.293942 352.308558 438.127042 C 350.178331 438.936674 349.978805 438.056639 351.38722 434.084748 C 352.144243 431.937463 352.525689 430.177393 352.343768 429.614171 C 352.179453 429.097884 350.859065 427.367148 349.403703 425.759618 C 347.948341 424.152088 345.823982 421.165836 344.685514 419.118288 C 343.547045 417.07074 342.25013 415.281335 341.804132 415.14053 C 340.42506 414.700512 340.841716 412.858306 342.795891 410.734488 C 343.951965 409.484839 344.697251 408.194121 344.867434 407.149813 C 345.196064 405.119865 346.299322 404.368902 349.497597 403.993421 C 352.255742 403.664874 353.4705 404.345435 353.4705 406.216976 C 353.4705 407.425557 354.450522 408.381862 356.633565 409.279497 C 357.519692 409.643245 359.591235 411.168639 361.246122 412.664698 C 362.90101 414.160758 364.526555 415.38694 364.866922 415.38694 C 365.20142 415.38694 366.269468 415.070127 367.237753 414.682912 C 370.154345 413.515399 370.917236 413.885013 371.504076 416.724593 C 371.77989 418.07398 372.396072 419.85165 372.871412 420.678883 C 373.346751 421.506116 373.968801 422.585625 374.250484 423.072578 C 374.837324 424.081685 374.203537 426.375642 372.495834 429.420563 C 371.662522 430.916623 371.093288 431.333173 368.957193 432.031334 C 366.451388 432.846833 366.410309 432.887901 365.623945 435.369599 C 364.919737 437.604888 364.602844 437.99797 362.842326 438.889739 C 360.3776 440.133522 359.315421 440.09832 358.047848 438.731333 Z M 358.047848 438.731333 " stroke="#000000" stroke-width="1" stroke-opacity="1" stroke-miterlimit="4"/><path stroke-linecap="butt" transform="matrix(0.665642, 0, 0, 0.665812, -86.753579, -139.600709)" fill-opacity="1" fill="#ff0000" fill-rule="evenodd" stroke-linejoin="miter" d="M 353.957577 502.322657 C 353.270975 501.630363 353.012765 500.820731 353.012765 499.336405 C 353.012765 497.030714 353.476368 495.927736 355.26036 494.020994 C 357.549034 491.574497 359.110027 484.892098 357.912875 482.662677 C 357.220404 481.366092 357.81898 480.538859 360.066575 479.711626 C 362.7543 478.725987 364.06882 477.54674 365.136868 475.170646 L 365.999522 473.246303 L 364.209662 470.265918 C 362.091171 466.751645 361.786015 465.977214 360.565389 461.154623 C 359.966813 458.778529 358.793134 455.997618 357.243878 453.257776 C 353.916498 447.379143 351.528062 439.892979 352.977555 439.892979 C 353.200554 439.892979 354.321417 440.291928 355.465754 440.784748 C 359.09829 442.339476 363.927979 442.380544 366.251863 440.872751 C 366.551151 440.679144 367.055833 439.224152 367.366858 437.645956 C 367.988907 434.495431 368.921982 433.832472 369.684873 435.997358 C 370.001767 436.90086 369.902004 438.103575 369.297559 440.520737 C 368.305801 444.504362 368.546405 447.179668 370.019372 448.593591 C 370.588606 449.14508 372.36673 450.019248 373.97467 450.535535 C 377.753916 451.767584 382.348868 454.483958 383.317153 456.062154 C 384.203281 457.511278 385.183303 462.75042 385.259592 466.475901 L 385.312407 469.06907 L 383.305417 469.632293 C 378.874779 470.881942 376.832578 471.668107 375.230506 472.730016 C 372.325651 474.648492 372.032231 475.469858 371.979416 481.753307 C 371.932468 487.989821 371.603838 489.010662 369.338638 489.955233 C 366.80936 491.011275 364.086425 495.094637 363.217903 499.136931 C 362.613458 501.970643 361.545411 502.73334 357.748559 503.038419 C 355.266229 503.237893 354.78502 503.144023 353.957577 502.31679 Z M 353.957577 502.322657 " stroke="#000000" stroke-width="1" stroke-opacity="1" stroke-miterlimit="4"/><path fill="#ff0000" d="M 133.402344 222.09375 C 130.402344 221.683594 128.945312 220.710938 127.144531 217.898438 C 126.082031 216.246094 125.21875 215.796875 121.179688 214.8125 C 116.726562 213.726562 114.613281 212.976562 113.292969 212.019531 C 112.648438 211.554688 111.539062 210.875 110.824219 210.511719 C 110.113281 210.148438 108.75 209.257812 107.804688 208.527344 C 105.640625 206.867188 101.242188 205.25 98.171875 204.988281 C 96.515625 204.847656 95.941406 204.679688 95.722656 204.269531 C 95.566406 203.976562 95.070312 203.5625 94.625 203.347656 C 93.867188 202.988281 93.804688 202.816406 93.722656 200.910156 C 93.613281 198.382812 93.984375 197.433594 95.535156 196.289062 C 97.007812 195.210938 97.414062 195.191406 98.703125 196.144531 C 99.257812 196.550781 99.996094 196.886719 100.347656 196.886719 C 101.230469 196.886719 102.863281 195.726562 103.433594 194.691406 C 103.792969 194.042969 104.269531 193.738281 105.382812 193.453125 C 106.949219 193.050781 107.183594 193.125 107.351562 194.066406 C 107.433594 194.515625 107.8125 194.71875 108.9375 194.921875 C 109.753906 195.066406 110.53125 195.382812 110.671875 195.617188 C 111.035156 196.242188 113.820312 197.472656 114.867188 197.472656 C 115.355469 197.472656 116.421875 197.269531 117.238281 197.023438 C 118.054688 196.773438 120.386719 196.4375 122.417969 196.269531 C 127.738281 195.835938 130.386719 195.136719 131.222656 193.945312 C 131.554688 193.46875 132.109375 193.371094 135.101562 193.269531 L 138.589844 193.148438 L 141.109375 191.734375 C 142.496094 190.953125 143.867188 190.105469 144.152344 189.847656 C 145.980469 188.191406 144.019531 192.847656 140.757812 197.898438 C 140.136719 198.863281 139.488281 200.195312 139.320312 200.863281 C 139.152344 201.53125 138.65625 203.175781 138.222656 204.523438 C 137.503906 206.742188 137.464844 207.097656 137.792969 208.328125 C 137.992188 209.074219 138.488281 210.175781 138.890625 210.769531 C 139.296875 211.367188 139.628906 212.09375 139.628906 212.386719 C 139.628906 212.683594 139.964844 213.585938 140.378906 214.402344 L 141.125 215.878906 L 139.9375 217.851562 C 139.28125 218.933594 138.664062 220.269531 138.558594 220.820312 C 138.265625 222.398438 137.328125 222.632812 133.402344 222.09375 Z M 133.402344 222.09375 " fill-opacity="1" fill-rule="evenodd"/><g clip-path="url(#62778edb7d)"><path stroke-linecap="butt" transform="matrix(0.665642, 0, 0, 0.665812, -86.753579, -139.600709)" fill="none" stroke-linejoin="miter" d="M 330.742209 543.238414 C 326.235282 542.62239 324.046371 541.161532 321.341041 536.937364 C 319.744838 534.455666 318.447923 533.780972 312.380003 532.302514 C 305.690034 530.671516 302.515233 529.545071 300.531715 528.10768 C 299.56343 527.409519 297.896806 526.388679 296.82289 525.843057 C 295.754842 525.297436 293.706773 523.959782 292.286621 522.862672 C 289.035531 520.36924 282.427719 517.940344 277.815161 517.547261 C 275.326962 517.336053 274.464308 517.083776 274.135678 516.467752 C 273.900942 516.027734 273.155656 515.405843 272.486659 515.083163 C 271.348191 514.543409 271.254296 514.285265 271.13106 511.422218 C 270.966745 507.626334 271.524242 506.200678 273.853995 504.481676 C 276.06638 502.862412 276.676693 502.833077 278.613263 504.264601 C 279.446575 504.874758 280.555701 505.379312 281.083857 505.379312 C 282.410114 505.379312 284.863103 503.636842 285.719888 502.082114 C 286.25978 501.108209 286.975725 500.650591 288.648217 500.222307 C 291.001443 499.618016 291.353547 499.729487 291.605888 501.14341 C 291.729124 501.818104 292.298358 502.123182 293.988456 502.428261 C 295.21495 502.645336 296.382761 503.120555 296.594023 503.472569 C 297.139783 504.411273 301.323949 506.259347 302.896678 506.259347 C 303.630228 506.259347 305.232299 505.954268 306.458794 505.584653 C 307.685288 505.209172 311.188719 504.704618 314.240284 504.452342 C 322.233037 503.801116 326.211809 502.750941 327.467645 500.961536 C 327.966459 500.245775 328.799771 500.099102 333.294961 499.946563 L 338.535437 499.764689 L 342.320551 497.640871 C 344.403831 496.467491 346.463637 495.194374 346.89203 494.807159 C 349.638439 492.319593 346.692505 499.312938 341.792395 506.898839 C 340.859321 508.347963 339.885167 510.348576 339.632826 511.351815 C 339.380485 512.355055 338.635199 514.82502 337.983808 516.8491 C 336.904023 520.181499 336.845339 520.715387 337.338284 522.56346 C 337.637572 523.684038 338.382858 525.338504 338.987303 526.230273 C 339.597616 527.127908 340.09643 528.219152 340.09643 528.659169 C 340.09643 529.105053 340.601111 530.460307 341.223161 531.686489 L 342.344025 533.904177 L 340.560033 536.866961 C 339.574142 538.492093 338.646936 540.498572 338.488489 541.325805 C 338.04836 543.696033 336.639945 544.048047 330.742209 543.238414 Z M 330.742209 543.238414 " stroke="#000000" stroke-width="1" stroke-opacity="1" stroke-miterlimit="4"/></g><path stroke-linecap="butt" transform="matrix(0.665642, 0, 0, 0.665812, -86.753579, -139.600709)" fill-opacity="1" fill="#ff0000" fill-rule="evenodd" stroke-linejoin="miter" d="M 314.698019 391.678799 C 311.740348 390.300077 309.457543 389.942196 307.697025 390.575821 C 306.887186 390.8633 306.664187 390.740095 306.447057 389.883527 C 306.077348 388.410936 306.834371 386.703668 309.011545 384.128099 C 310.719248 382.098152 310.81901 381.851742 310.09133 381.446926 C 309.328438 381.018642 309.328438 380.954106 310.056119 380.144474 C 311.529086 378.519343 313.870576 379.305507 314.897545 381.763738 C 316.000803 384.397976 316.458537 384.092897 321.135648 377.633441 C 323.295217 374.653056 324.357396 374.101568 326.9747 374.594387 C 329.175348 375.00507 330.290343 376.929413 330.290343 380.326348 C 330.290343 383.077924 329.744582 384.638519 328.788034 384.638519 C 328.465272 384.638519 327.849091 385.031601 327.414829 385.512687 C 326.651938 386.357521 326.640201 386.592197 327.250514 390.194473 C 327.367882 390.904368 326.886674 391.262249 324.721237 392.066014 C 320.994806 393.444735 318.260134 393.339131 314.698019 391.678799 Z M 314.698019 391.678799 " stroke="#000000" stroke-width="1" stroke-opacity="1" stroke-miterlimit="4"/><path stroke-linecap="butt" transform="matrix(0.665642, 0, 0, 0.665812, -86.753579, -139.600709)" fill-opacity="1" fill="#f9f9f9" fill-rule="evenodd" stroke-linejoin="miter" d="M 180.071186 476.707774 C 177.723828 475.117844 176.43865 473.551382 174.789631 470.265918 C 173.545532 467.784219 173.357743 466.962853 173.40469 464.228878 C 173.469243 460.644203 174.584237 455.322925 175.605338 453.768196 C 175.980915 453.199107 176.40344 451.345167 176.544281 449.643766 C 176.825964 446.293766 176.203914 444.627567 174.478606 444.076078 C 173.193428 443.671262 172.829588 442.122401 173.838951 441.383171 C 174.53729 440.872751 174.666395 440.145256 174.666395 436.595781 C 174.666395 433.632997 174.443396 431.890528 173.897635 430.635012 C 173.475111 429.661106 172.923482 428.030108 172.665273 427.021001 C 172.412932 426.006028 171.192306 423.80594 169.959943 422.133874 C 165.869672 416.601388 166.227644 415.451476 172.031486 415.428008 C 175.675759 415.416274 176.286072 415.275469 179.36111 413.785276 C 181.931467 412.541493 183.468986 411.37398 185.945449 408.769077 C 187.729441 406.903403 189.495827 405.378009 189.883141 405.378009 C 190.270455 405.378009 190.945321 404.580111 191.38545 403.594472 L 192.183552 401.810934 L 193.228126 402.925645 C 193.803229 403.535803 194.519173 404.040356 194.818461 404.040356 C 195.434642 404.040356 198.14584 406.967939 198.14584 407.630898 C 198.14584 407.871441 198.568365 408.487466 199.084784 409.003753 C 199.765517 409.684313 199.888754 410.077396 199.530782 410.435276 C 198.69747 411.268376 198.973284 412.160145 200.534277 413.673805 C 202.048323 415.14053 205.845174 423.46566 205.809963 425.231597 C 205.804095 425.689215 204.959046 427.502087 203.937946 429.25629 C 201.490825 433.439389 201.261958 435.146657 202.781872 437.739827 L 203.949682 439.734573 L 203.257212 447.713556 C 202.881635 452.101997 202.259585 457.505411 201.878139 459.717233 C 201.496694 461.929054 201.027222 464.880104 200.839433 466.270559 C 200.645776 467.661015 200.352357 469.016268 200.182173 469.286146 C 199.695097 470.078177 198.556628 469.861102 197.001504 468.675988 C 194.965171 467.12126 192.365472 466.792713 189.818589 467.766619 C 187.588599 468.617319 186.884392 469.714429 186.297552 473.263904 C 185.921975 475.563728 184.14972 477.828351 182.735437 477.828351 C 182.17794 477.828351 180.980787 477.323798 180.071186 476.707774 Z M 180.071186 476.707774 " stroke="#000000" stroke-width="1" stroke-opacity="1" stroke-miterlimit="4"/><path stroke-linecap="butt" transform="matrix(0.665642, 0, 0, 0.665812, -86.753579, -139.600709)" fill-opacity="1" fill="#f9f9f9" fill-rule="evenodd" stroke-linejoin="miter" d="M 290.490893 398.631075 C 289.751475 398.402265 287.679932 398.349463 285.884203 398.50787 C 282.820901 398.777747 282.545087 398.724945 281.412487 397.67477 C 280.749358 397.052879 278.396132 395.568553 276.189616 394.365839 C 273.525365 392.916714 271.195612 391.20358 269.259042 389.261636 C 267.651102 387.654105 265.397639 385.588957 264.253302 384.673721 C 262.927045 383.623545 262.052654 382.526435 261.870734 381.687469 C 261.442341 379.751392 258.032804 376.184317 254.775845 374.283441 C 252.205488 372.775648 251.736017 372.259361 249.60579 368.539747 C 246.078885 362.385369 246.049543 361.071184 249.353449 356.817682 C 250.474312 355.374424 251.495413 353.684757 251.624517 353.062866 C 251.753622 352.440974 251.953148 351.472936 252.070515 350.909714 C 252.369804 349.442989 253.144432 350.147017 253.144432 351.889486 C 253.144432 353.778628 254.412005 354.934407 256.835652 355.257086 C 258.425986 355.474162 258.901326 355.802708 260.016321 357.46304 C 260.738134 358.54255 261.988102 359.8098 262.792072 360.285019 C 263.596042 360.760238 264.787326 361.839748 265.432849 362.690448 C 267.275525 365.101744 268.331836 364.837733 273.496023 360.672234 C 277.510005 357.433706 278.941893 356.477401 280.872595 355.749906 C 281.735248 355.421359 283.214084 354.558925 284.164764 353.819696 C 285.549705 352.746053 285.966361 352.605248 286.283254 353.103934 C 286.928777 354.118908 286.764462 354.406386 285.138917 355.086946 C 281.835011 356.465668 281.817406 359.856735 285.062628 367.026087 L 286.230438 369.595789 L 284.029791 369.501918 C 281.124935 369.378713 279.980599 370.346752 279.980599 372.934055 C 279.980599 375.298415 280.661332 376.131515 282.838507 376.460061 C 285.250417 376.817942 287.949878 378.78922 288.395876 380.508222 C 288.659954 381.511462 289.123557 382.004281 290.068368 382.285892 C 290.796049 382.502968 291.928649 382.960586 292.585909 383.300866 C 293.360538 383.705682 294.41098 383.828887 295.520107 383.65288 C 297.714886 383.300866 300.877951 384.708922 302.785179 386.879675 C 304.445934 388.774683 304.475276 389.906995 302.914283 392.189219 C 302.251155 393.168991 301.476527 394.876259 301.194844 395.985103 C 300.848609 397.340357 300.338058 398.179323 299.610377 398.548938 C 298.378015 399.182563 292.480278 399.235365 290.490893 398.631075 Z M 290.490893 398.631075 " stroke="#000000" stroke-width="1" stroke-opacity="1" stroke-miterlimit="4"/><path stroke-linecap="butt" transform="matrix(0.665642, 0, 0, 0.665812, -86.753579, -139.600709)" fill-opacity="1" fill="#f9f9f9" fill-rule="evenodd" stroke-linejoin="miter" d="M 300.549321 382.051216 C 298.278252 380.995175 297.216073 380.748765 295.696158 380.913038 C 293.847614 381.118379 293.565931 380.983441 290.326578 378.349203 C 288.448692 376.823809 285.954624 375.016804 284.786813 374.330377 C 281.606144 372.476436 281.917169 371.614002 285.702283 371.825211 C 287.480406 371.924948 289.370029 370.792636 289.370029 369.63099 C 289.370029 369.173372 288.665822 367.753582 287.809037 366.480465 C 286.330201 364.280378 284.898313 360.507961 284.898313 358.818294 C 284.898313 358.313741 285.584915 357.779853 286.88183 357.287033 C 288.460428 356.682743 289.053136 356.142988 289.745607 354.676263 C 290.884075 352.276701 291.969728 351.308663 296.288866 348.850432 L 299.850982 346.820485 L 301.582158 350.14115 C 302.538706 351.965756 304.569171 354.92854 306.100821 356.723811 C 309.868331 361.13572 316.323564 367.108223 318.34816 368.058661 C 320.349283 368.997365 320.660308 369.419782 320.666176 371.203319 C 320.677913 372.834317 318.183845 378.049991 317.21556 378.419606 C 316.845851 378.560411 315.501989 378.114527 314.222679 377.422233 C 310.971589 375.662163 310.185224 375.978975 307.608999 380.097539 C 305.150142 384.010761 304.927143 384.075297 300.549321 382.051216 Z M 300.549321 382.051216 " stroke="#000000" stroke-width="1" stroke-opacity="1" stroke-miterlimit="4"/><path stroke-linecap="butt" transform="matrix(0.665642, 0, 0, 0.665812, -86.753579, -139.600709)" fill-opacity="1" fill="#f9f9f9" fill-rule="evenodd" stroke-linejoin="miter" d="M 286.717515 348.187472 C 285.514494 345.805511 285.23868 345.541501 283.660082 345.289224 C 281.441829 344.93721 279.147287 343.388348 278.049897 341.510941 C 277.580425 340.701308 276.700166 338.102272 276.10159 335.732045 C 274.487782 329.395793 273.319971 327.389313 270.943271 326.867159 C 268.836518 326.403674 263.983356 323.998245 263.707541 323.282484 C 263.572568 322.93047 263.032676 322.637125 262.510389 322.637125 C 261.594919 322.637125 261.600788 322.596056 262.721651 321.258403 C 264.065513 319.668474 264.088987 319.515934 263.255675 318.371889 C 262.774467 317.720663 262.152417 317.538789 260.573819 317.609192 C 259.441219 317.656127 258.514012 317.544656 258.514012 317.362782 C 258.514012 316.611819 259.986979 314.986688 261.266289 314.329595 C 262.557336 313.660768 262.698177 313.678369 264.25917 314.752012 C 265.157035 315.373903 266.858869 316.1366 268.038416 316.447546 C 270.573563 317.122239 271.283638 316.811294 272.633369 314.435199 L 273.554707 312.804201 L 277.650846 316.072064 C 279.898441 317.873202 283.583793 320.431171 285.837256 321.768824 C 290.361788 324.44413 291.746729 325.875653 294.053008 330.269961 C 296.030657 334.036511 298.865091 342.437911 298.677303 344.004373 C 298.559935 345.042814 298.113937 345.35376 295.185608 346.421536 C 292.80304 347.289837 291.429836 348.105336 290.443946 349.225913 C 289.681054 350.100082 288.824269 350.809976 288.548454 350.809976 C 288.27264 350.809976 287.445196 349.63073 286.717515 348.187472 Z M 286.717515 348.187472 " stroke="#000000" stroke-width="1" stroke-opacity="1" stroke-miterlimit="4"/><path stroke-linecap="butt" transform="matrix(0.665642, 0, 0, 0.665812, -86.753579, -139.600709)" fill-opacity="1" fill="#f9f9f9" fill-rule="evenodd" stroke-linejoin="miter" d="M 267.011447 360.208749 C 266.230951 359.228977 265.20985 358.419345 264.740379 358.419345 C 264.241565 358.419345 263.331964 357.627314 262.557336 356.51847 C 261.829655 355.474162 260.97287 354.259713 260.655976 353.813829 C 260.321478 353.350344 259.417745 352.968995 258.514012 352.910326 C 256.465943 352.781255 255.832156 352.33537 255.832156 351.044652 C 255.832156 350.463829 255.521131 349.677665 255.139686 349.296316 C 254.588057 348.750695 254.535241 348.252008 254.869739 346.914355 C 255.104475 345.987385 255.4155 343.740362 255.568078 341.921624 C 255.92605 337.679855 256.776968 335.855249 258.648985 335.321362 C 260.503398 334.793341 260.785081 333.074339 259.347324 331.056126 C 258.660722 330.093954 258.508144 329.577667 258.871984 329.454462 C 259.165404 329.354725 259.411877 328.7387 259.411877 328.081608 C 259.429482 325.646844 259.887217 325.547107 263.836646 327.125303 C 265.843637 327.923201 267.58655 328.750434 267.721523 328.967509 C 267.850628 329.178718 268.413993 329.348858 268.971491 329.348858 C 270.010197 329.348858 271.436217 330.616108 272.316476 332.33511 C 273.061762 333.778367 275.397383 340.959452 275.743618 342.866194 C 276.154406 345.101483 277.774082 346.79115 279.516995 346.79115 C 280.41486 346.79115 281.212961 347.172499 281.852616 347.911728 C 282.38664 348.527752 283.090848 349.026439 283.413609 349.026439 C 283.742239 349.026439 284.006317 349.290449 284.006317 349.618996 C 284.006317 350.710239 281.523986 352.587647 278.859735 353.502883 C 277.392637 354.007437 275.59104 354.981342 274.845754 355.667769 C 274.100468 356.360063 272.639237 357.580378 271.594663 358.384144 C 270.544221 359.182042 269.570067 360.326087 269.417489 360.918644 C 269.04778 362.40297 268.654598 362.285632 267.011447 360.208749 Z M 267.011447 360.208749 " stroke="#000000" stroke-width="1" stroke-opacity="1" stroke-miterlimit="4"/><path stroke-linecap="butt" transform="matrix(0.665642, 0, 0, 0.665812, -86.753579, -139.600709)" fill-opacity="1" fill="#f9f9f9" fill-rule="evenodd" stroke-linejoin="miter" d="M 238.978128 361.317593 C 237.939422 360.877576 237.246951 360.062077 236.401903 358.272673 C 235.05804 355.43896 230.844533 351.050519 228.726043 350.287822 C 227.393918 349.80087 227.270681 349.601395 227.335234 347.999731 C 227.393918 346.579942 227.16505 346.028453 226.167423 345.171886 C 225.480821 344.579329 224.348221 344.10411 223.632277 344.10411 C 221.953916 344.10411 221.766127 343.722762 221.666365 340.155687 C 221.595944 337.638787 221.255577 336.471274 219.495059 332.698857 C 216.866018 327.078368 216.20289 325.183359 215.117237 320.214095 C 214.066794 315.403238 212.857905 312.774867 210.962414 311.17907 C 210.181917 310.521977 209.313395 309.460068 209.03758 308.820576 C 208.755897 308.181084 207.095142 306.069 205.34636 304.127057 C 203.597579 302.19098 202.165691 300.360507 202.165691 300.061295 C 202.165691 299.374868 203.621052 298.037215 204.36047 298.037215 C 204.671495 298.037215 205.763016 298.711908 206.784117 299.539141 C 207.811086 300.366374 210.158444 301.903502 212.006988 302.953677 C 213.849664 304.003852 216.367205 305.611382 217.593699 306.520752 C 221.232104 309.213659 221.725049 309.401399 223.027832 308.544832 C 224.078275 307.858405 224.213248 307.858405 224.999613 308.5683 C 227.247208 310.604114 234.21886 309.982222 237.869001 307.418387 C 240.145938 305.816724 240.633015 305.89886 243.790211 308.392293 C 245.315994 309.595007 245.979122 310.410506 245.80307 310.868124 C 245.269046 312.252713 246.430989 314.945619 248.126954 316.289139 C 250.579943 318.213483 254.212479 319.932484 256.518758 320.249297 C 257.633753 320.401836 258.643117 320.689314 258.772222 320.894656 C 259.012826 321.287738 257.369675 324.672939 255.861498 326.88476 C 254.652609 328.662431 254.705424 329.888613 256.055155 331.50201 C 257.504649 333.215145 257.469438 333.625828 255.820419 334.200784 C 253.848639 334.887211 253.1503 336.934759 253.1503 342.021361 C 253.1503 346.521273 252.974248 346.926089 250.791205 347.471711 C 249.200871 347.87066 248.678584 348.879766 248.672715 351.566806 C 248.660978 354.042638 248.584689 354.189311 246.331226 355.867244 C 244.893469 356.940886 244.652865 357.36917 244.652865 358.871096 C 244.652865 360.085545 244.412261 360.742637 243.872369 361.018382 C 242.352455 361.792812 240.392411 361.916017 238.978128 361.317593 Z M 238.978128 361.317593 " stroke="#000000" stroke-width="1" stroke-opacity="1" stroke-miterlimit="4"/><path stroke-linecap="butt" transform="matrix(0.665642, 0, 0, 0.665812, -86.753579, -139.600709)" fill-opacity="1" fill="#f9f9f9" fill-rule="evenodd" stroke-linejoin="miter" d="M 252.63975 316.81716 C 250.691443 315.790453 248.672715 313.502362 248.672715 312.323115 C 248.672715 311.853763 248.913319 310.574779 249.200871 309.483536 C 249.811184 307.218913 249.27716 306.086601 247.610536 306.086601 C 247.088249 306.086601 245.386414 305.482311 243.825421 304.748948 C 242.264429 304.009719 240.544989 303.405428 239.999228 303.405428 C 239.453468 303.405428 238.015711 304.04492 236.795085 304.819351 C 235.216487 305.834325 233.884362 306.29781 232.123843 306.444482 C 230.774113 306.555953 229.43025 306.831697 229.142699 307.060507 C 228.814069 307.324517 227.722548 307.213046 226.167423 306.767162 C 224.817692 306.374079 223.209752 306.174605 222.593571 306.333011 C 221.725049 306.550086 221.09713 306.274342 219.759137 305.071628 C 218.808457 304.220927 215.921207 302.384588 213.339113 300.994132 C 210.75702 299.59781 208.274689 297.960945 207.822823 297.350788 C 207.153826 296.453152 206.62567 296.253678 204.917967 296.265411 C 203.767762 296.271278 202.441505 296.576357 201.966165 296.934238 C 200.299541 298.195621 197.688106 297.309719 197.688106 295.485114 C 197.688106 294.041856 195.769141 291.566025 194.542646 291.431086 C 193.938202 291.360683 192.952312 291.19641 192.347867 291.061471 L 191.262214 290.826795 L 192.347867 290.281174 C 193.363099 289.77662 193.462862 289.424606 193.744545 285.147637 C 193.961675 281.909108 194.296174 280.137305 194.888882 279.128198 C 195.904114 277.391596 197.793737 276.593697 199.043705 277.373995 C 200.240857 278.119091 203.145712 278.054555 204.202023 277.256657 C 205.487202 276.282752 206.044699 276.429424 206.543513 277.855081 C 206.901485 278.870054 207.353351 279.204467 208.714819 279.450877 C 209.65963 279.626884 212.206513 280.471718 214.371951 281.334152 C 219.941057 283.545973 221.02671 283.663311 222.188652 282.178986 C 222.928069 281.246149 223.303647 281.076008 223.937433 281.410422 C 224.383431 281.645098 228.368071 281.956043 232.79284 282.102716 C 237.223478 282.249388 242.07664 282.495798 243.578949 282.648338 C 246.06128 282.906481 246.477936 282.818478 248.173902 281.692033 L 250.045919 280.459984 L 253.748876 281.011473 C 255.785209 281.310684 257.674832 281.6979 257.950646 281.86804 C 258.238198 282.044047 258.660722 284.912961 258.954142 288.656043 C 259.822664 299.826619 260.937659 302.936076 266.072504 308.468562 C 267.780207 310.316636 269.511383 312.463921 269.916302 313.244219 C 270.608773 314.587739 270.602905 314.658141 269.85175 314.511469 C 269.411621 314.423465 268.760229 313.754639 268.408125 313.021276 C 268.050153 312.282047 267.615892 311.378545 267.433972 311.00893 C 267.023184 310.152363 264.423485 310.205165 262.181759 311.114534 C 261.272158 311.490016 259.934164 311.965235 259.212351 312.18231 C 258.214724 312.481522 257.592674 313.197283 256.630258 315.145094 C 255.931919 316.559017 255.116212 317.708929 254.811056 317.697195 C 254.511767 317.685462 253.531746 317.292379 252.63975 316.823027 Z M 252.63975 316.81716 " stroke="#000000" stroke-width="1" stroke-opacity="1" stroke-miterlimit="4"/><g clip-path="url(#06e11cca2b)"><path fill="#f0f0f0" d="M 77.980469 33.9375 C 76.054688 33.9375 74.230469 33.675781 72.839844 33.199219 C 71.121094 32.613281 70.175781 31.699219 70.175781 30.625 C 70.175781 29.972656 70.523438 29.042969 72.183594 28.308594 C 72.800781 28.035156 73.539062 27.8125 74.386719 27.644531 C 74.34375 27.59375 74.300781 27.542969 74.257812 27.488281 C 72.410156 25.265625 70.664062 23.164062 70.664062 20.820312 C 70.664062 18.90625 71.425781 17.105469 72.808594 15.75 C 74.1875 14.394531 76.027344 13.648438 77.980469 13.648438 C 79.933594 13.648438 81.773438 14.394531 83.152344 15.75 C 84.535156 17.101562 85.296875 18.902344 85.296875 20.820312 C 85.296875 23.164062 83.550781 25.265625 81.707031 27.488281 C 81.707031 27.488281 81.617188 27.59375 81.574219 27.644531 C 82.421875 27.8125 83.160156 28.035156 83.78125 28.308594 C 85.4375 29.042969 85.789062 29.976562 85.789062 30.625 C 85.789062 31.699219 84.839844 32.613281 83.121094 33.199219 C 81.730469 33.675781 79.90625 33.9375 77.980469 33.9375 Z M 77.980469 33.9375 " fill-opacity="1" fill-rule="evenodd"/><path fill="#ffffff" d="M 83.671875 28.546875 C 82.96875 28.234375 82.085938 27.988281 81.085938 27.820312 C 81.222656 27.65625 81.359375 27.492188 81.496094 27.332031 L 81.5 27.324219 C 83.316406 25.136719 85.03125 23.070312 85.03125 20.820312 C 85.03125 18.972656 84.296875 17.238281 82.964844 15.933594 C 81.632812 14.628906 79.863281 13.910156 77.980469 13.910156 C 76.097656 13.910156 74.328125 14.628906 72.996094 15.933594 C 71.664062 17.238281 70.929688 18.972656 70.929688 20.820312 C 70.929688 23.070312 72.648438 25.136719 74.460938 27.324219 C 74.597656 27.488281 74.734375 27.65625 74.875 27.820312 C 73.875 27.988281 72.992188 28.234375 72.289062 28.546875 C 70.761719 29.222656 70.441406 30.050781 70.441406 30.625 C 70.441406 31.578125 71.324219 32.40625 72.929688 32.953125 C 74.289062 33.421875 76.085938 33.675781 77.980469 33.675781 C 79.875 33.675781 81.671875 33.421875 83.035156 32.953125 C 84.636719 32.40625 85.523438 31.578125 85.523438 30.625 C 85.523438 30.050781 85.199219 29.222656 83.671875 28.546875 Z M 83.671875 28.546875 " fill-opacity="1" fill-rule="evenodd"/></g><g clip-path="url(#f244f55a3a)"><path fill="#71c285" d="M 79.492188 28.363281 C 79.492188 28.359375 79.492188 28.359375 79.492188 28.355469 C 79.503906 28.246094 79.605469 28.160156 79.71875 28.171875 C 81.21875 28.304688 82.527344 28.609375 83.453125 29.019531 C 84.417969 29.445312 84.992188 30.003906 84.992188 30.625 C 84.992188 31.363281 84.175781 32.011719 82.859375 32.464844 C 81.605469 32.890625 79.882812 33.15625 77.980469 33.15625 C 76.082031 33.15625 74.355469 32.890625 73.101562 32.464844 C 71.785156 32.011719 70.972656 31.363281 70.972656 30.625 C 70.972656 30.003906 71.546875 29.445312 72.507812 29.019531 C 73.4375 28.609375 74.742188 28.304688 76.246094 28.171875 C 76.359375 28.160156 76.460938 28.242188 76.46875 28.355469 C 76.46875 28.359375 76.46875 28.359375 76.46875 28.363281 Z M 79.492188 28.363281 " fill-opacity="1" fill-rule="evenodd"/></g><path fill="#ef5350" d="M 77.800781 30.960938 C 77.011719 29.570312 75.921875 28.257812 74.875 26.996094 C 73.113281 24.875 71.460938 22.886719 71.460938 20.820312 C 71.460938 19.054688 72.191406 17.457031 73.371094 16.300781 C 74.550781 15.144531 76.179688 14.429688 77.980469 14.429688 C 79.78125 14.429688 81.410156 15.144531 82.589844 16.300781 C 83.769531 17.457031 84.5 19.054688 84.5 20.820312 C 84.5 22.886719 82.851562 24.875 81.085938 26.996094 C 80.039062 28.257812 78.949219 29.570312 78.160156 30.960938 C 78.105469 31.058594 77.980469 31.09375 77.878906 31.039062 C 77.84375 31.019531 77.816406 30.992188 77.800781 30.960938 Z M 77.800781 30.960938 " fill-opacity="1" fill-rule="evenodd"/><path fill="#c24441" d="M 77.980469 25.589844 C 76.636719 25.589844 75.421875 25.054688 74.539062 24.191406 C 73.660156 23.328125 73.113281 22.136719 73.113281 20.820312 C 73.113281 19.5 73.660156 18.308594 74.539062 17.445312 C 75.421875 16.582031 76.636719 16.046875 77.980469 16.046875 C 79.324219 16.046875 80.542969 16.582031 81.421875 17.445312 C 82.304688 18.308594 82.847656 19.5 82.847656 20.820312 C 82.847656 22.136719 82.304688 23.328125 81.421875 24.191406 C 80.542969 25.054688 79.324219 25.589844 77.980469 25.589844 Z M 77.980469 25.589844 " fill-opacity="1" fill-rule="evenodd"/><path fill="#ffffff" d="M 75.117188 23.628906 C 75.851562 24.34375 76.863281 24.789062 77.980469 24.789062 C 79.101562 24.789062 80.113281 24.347656 80.84375 23.628906 C 81.578125 22.910156 82.03125 21.917969 82.03125 20.820312 C 82.03125 19.722656 81.578125 18.730469 80.84375 18.011719 C 80.113281 17.292969 79.101562 16.847656 77.980469 16.847656 C 76.863281 16.847656 75.851562 17.292969 75.117188 18.011719 C 74.382812 18.730469 73.929688 19.722656 73.929688 20.820312 C 73.929688 21.914062 74.382812 22.910156 75.117188 23.628906 Z M 75.117188 23.628906 " fill-opacity="1" fill-rule="evenodd"/><g clip-path="url(#b7e887bc1f)"><path fill="#f0f0f0" d="M 25.3125 54.402344 C 23.386719 54.402344 21.558594 54.140625 20.171875 53.664062 C 18.453125 53.078125 17.503906 52.164062 17.503906 51.089844 C 17.503906 50.441406 17.851562 49.507812 19.511719 48.773438 C 20.128906 48.5 20.871094 48.277344 21.714844 48.113281 C 21.671875 48.058594 21.628906 48.007812 21.585938 47.957031 C 19.738281 45.730469 17.996094 43.628906 17.996094 41.285156 C 17.996094 39.371094 18.753906 37.570312 20.136719 36.214844 C 21.519531 34.859375 23.355469 34.117188 25.308594 34.117188 C 27.265625 34.117188 29.101562 34.859375 30.484375 36.214844 C 31.863281 37.570312 32.625 39.371094 32.625 41.285156 C 32.625 43.628906 30.882812 45.730469 29.035156 47.953125 C 29.035156 47.953125 28.945312 48.0625 28.90625 48.113281 C 29.75 48.277344 30.492188 48.5 31.109375 48.773438 C 32.769531 49.507812 33.117188 50.441406 33.117188 51.09375 C 33.117188 52.164062 32.171875 53.078125 30.453125 53.664062 C 29.0625 54.140625 27.234375 54.402344 25.3125 54.402344 Z M 25.3125 54.402344 " fill-opacity="1" fill-rule="evenodd"/></g><g clip-path="url(#b7fb40adc9)"><path fill="#ffffff" d="M 31 49.011719 C 30.296875 48.699219 29.417969 48.453125 28.417969 48.289062 C 28.554688 48.121094 28.6875 47.957031 28.824219 47.796875 L 28.828125 47.789062 C 30.644531 45.601562 32.359375 43.535156 32.359375 41.285156 C 32.359375 39.4375 31.625 37.703125 30.296875 36.398438 C 28.964844 35.09375 27.191406 34.375 25.308594 34.375 C 23.425781 34.375 21.65625 35.09375 20.324219 36.398438 C 18.992188 37.703125 18.261719 39.441406 18.261719 41.285156 C 18.261719 43.539062 19.976562 45.605469 21.792969 47.792969 C 21.929688 47.953125 22.066406 48.121094 22.203125 48.289062 C 21.203125 48.453125 20.320312 48.699219 19.621094 49.011719 C 18.089844 49.6875 17.769531 50.515625 17.769531 51.089844 C 17.769531 52.042969 18.652344 52.871094 20.257812 53.421875 C 21.621094 53.886719 23.414062 54.144531 25.3125 54.144531 C 27.207031 54.144531 29 53.886719 30.363281 53.421875 C 31.96875 52.871094 32.851562 52.042969 32.851562 51.089844 C 32.851562 50.515625 32.53125 49.6875 31 49.011719 Z M 31 49.011719 " fill-opacity="1" fill-rule="evenodd"/></g><path fill="#71c285" d="M 26.820312 48.828125 C 26.820312 48.828125 26.824219 48.824219 26.824219 48.820312 C 26.832031 48.710938 26.933594 48.628906 27.046875 48.636719 C 28.550781 48.769531 29.855469 49.074219 30.78125 49.484375 C 31.746094 49.914062 32.320312 50.46875 32.320312 51.089844 C 32.320312 51.832031 31.503906 52.476562 30.1875 52.929688 C 28.9375 53.355469 27.210938 53.621094 25.3125 53.621094 C 23.410156 53.621094 21.683594 53.359375 20.433594 52.929688 C 19.117188 52.480469 18.300781 51.832031 18.300781 51.089844 C 18.300781 50.46875 18.875 49.914062 19.839844 49.484375 C 20.765625 49.074219 22.070312 48.773438 23.574219 48.636719 C 23.6875 48.628906 23.789062 48.710938 23.800781 48.820312 C 23.800781 48.824219 23.800781 48.824219 23.800781 48.828125 Z M 26.820312 48.828125 " fill-opacity="1" fill-rule="evenodd"/><g clip-path="url(#aa1456de81)"><path fill="#ef5350" d="M 25.128906 51.425781 C 24.339844 50.035156 23.253906 48.722656 22.203125 47.460938 C 20.441406 45.339844 18.792969 43.351562 18.792969 41.285156 C 18.792969 39.519531 19.519531 37.921875 20.699219 36.765625 C 21.878906 35.609375 23.511719 34.894531 25.308594 34.894531 C 27.109375 34.894531 28.738281 35.609375 29.921875 36.765625 C 31.101562 37.921875 31.828125 39.519531 31.828125 41.285156 C 31.828125 43.351562 30.179688 45.339844 28.417969 47.460938 C 27.367188 48.726562 26.28125 50.035156 25.492188 51.425781 C 25.433594 51.523438 25.308594 51.558594 25.210938 51.503906 C 25.175781 51.484375 25.148438 51.457031 25.128906 51.425781 Z M 25.128906 51.425781 " fill-opacity="1" fill-rule="evenodd"/></g><path fill="#c24441" d="M 25.3125 46.054688 C 23.964844 46.054688 22.75 45.523438 21.867188 44.660156 C 20.988281 43.796875 20.441406 42.601562 20.441406 41.285156 C 20.441406 39.96875 20.988281 38.773438 21.867188 37.910156 C 22.75 37.046875 23.964844 36.515625 25.3125 36.515625 C 26.65625 36.515625 27.871094 37.046875 28.753906 37.910156 C 29.632812 38.773438 30.179688 39.96875 30.179688 41.285156 C 30.179688 42.601562 29.632812 43.796875 28.753906 44.660156 C 27.871094 45.523438 26.65625 46.054688 25.3125 46.054688 Z M 25.3125 46.054688 " fill-opacity="1" fill-rule="evenodd"/><path fill="#ffffff" d="M 22.445312 44.09375 C 23.179688 44.8125 24.191406 45.257812 25.3125 45.257812 C 26.429688 45.257812 27.441406 44.8125 28.175781 44.09375 C 28.90625 43.375 29.363281 42.382812 29.363281 41.285156 C 29.363281 40.1875 28.910156 39.195312 28.175781 38.476562 C 27.441406 37.761719 26.429688 37.316406 25.3125 37.316406 C 24.191406 37.316406 23.179688 37.757812 22.445312 38.476562 C 21.714844 39.195312 21.261719 40.1875 21.261719 41.285156 C 21.261719 42.382812 21.714844 43.375 22.445312 44.09375 Z M 22.445312 44.09375 " fill-opacity="1" fill-rule="evenodd"/><g clip-path="url(#f46546c7ae)"><path fill="#f0f0f0" d="M 40.738281 151.609375 C 38.8125 151.609375 36.984375 151.347656 35.597656 150.875 C 33.878906 150.285156 32.929688 149.371094 32.929688 148.300781 C 32.929688 147.648438 33.277344 146.71875 34.9375 145.984375 C 35.554688 145.707031 36.296875 145.488281 37.140625 145.320312 C 37.097656 145.265625 37.054688 145.214844 37.011719 145.164062 C 35.164062 142.941406 33.421875 140.839844 33.421875 138.492188 C 33.421875 136.578125 34.183594 134.777344 35.5625 133.421875 C 36.945312 132.070312 38.78125 131.324219 40.738281 131.324219 C 42.691406 131.324219 44.527344 132.070312 45.910156 133.421875 C 47.289062 134.777344 48.050781 136.578125 48.050781 138.492188 C 48.050781 140.839844 46.308594 142.9375 44.460938 145.164062 C 44.460938 145.164062 44.371094 145.269531 44.332031 145.320312 C 45.175781 145.488281 45.917969 145.707031 46.535156 145.984375 C 48.195312 146.71875 48.542969 147.648438 48.542969 148.300781 C 48.542969 149.371094 47.597656 150.285156 45.878906 150.875 C 44.488281 151.347656 42.660156 151.609375 40.738281 151.609375 Z M 40.738281 151.609375 " fill-opacity="1" fill-rule="evenodd"/></g><g clip-path="url(#2a2269c81b)"><path fill="#ffffff" d="M 46.425781 146.21875 C 45.726562 145.910156 44.84375 145.664062 43.84375 145.496094 C 43.980469 145.332031 44.117188 145.167969 44.25 145.003906 L 44.253906 144.996094 C 46.070312 142.808594 47.785156 140.746094 47.785156 138.492188 C 47.785156 136.648438 47.054688 134.910156 45.722656 133.605469 C 44.390625 132.300781 42.617188 131.582031 40.738281 131.582031 C 38.851562 131.582031 37.082031 132.300781 35.75 133.605469 C 34.417969 134.914062 33.6875 136.648438 33.6875 138.492188 C 33.6875 140.746094 35.402344 142.8125 37.21875 145 C 37.355469 145.164062 37.492188 145.328125 37.628906 145.496094 C 36.628906 145.664062 35.746094 145.910156 35.046875 146.21875 C 33.515625 146.898438 33.195312 147.726562 33.195312 148.300781 C 33.195312 149.253906 34.082031 150.078125 35.683594 150.628906 C 37.046875 151.09375 38.839844 151.351562 40.738281 151.351562 C 42.632812 151.351562 44.425781 151.09375 45.789062 150.628906 C 47.394531 150.078125 48.277344 149.253906 48.277344 148.300781 C 48.277344 147.726562 47.957031 146.898438 46.425781 146.21875 Z M 46.425781 146.21875 " fill-opacity="1" fill-rule="evenodd"/></g><path fill="#71c285" d="M 42.25 146.035156 C 42.25 146.035156 42.25 146.03125 42.25 146.03125 C 42.257812 145.917969 42.359375 145.835938 42.472656 145.847656 C 43.976562 145.980469 45.28125 146.285156 46.207031 146.695312 C 47.171875 147.121094 47.746094 147.675781 47.746094 148.300781 C 47.746094 149.039062 46.933594 149.6875 45.613281 150.136719 C 44.363281 150.566406 42.636719 150.832031 40.738281 150.832031 C 38.835938 150.832031 37.113281 150.566406 35.859375 150.136719 C 34.542969 149.6875 33.726562 149.039062 33.726562 148.300781 C 33.726562 147.675781 34.300781 147.121094 35.265625 146.695312 C 36.191406 146.285156 37.496094 145.980469 39 145.847656 C 39.113281 145.835938 39.214844 145.917969 39.226562 146.03125 C 39.226562 146.03125 39.226562 146.035156 39.226562 146.035156 Z M 42.25 146.035156 " fill-opacity="1" fill-rule="evenodd"/><path fill="#ef5350" d="M 40.554688 148.632812 C 39.765625 147.242188 38.679688 145.933594 37.628906 144.671875 C 35.867188 142.546875 34.21875 140.5625 34.21875 138.492188 C 34.21875 136.730469 34.945312 135.132812 36.125 133.976562 C 37.304688 132.816406 38.9375 132.101562 40.738281 132.101562 C 42.535156 132.101562 44.167969 132.820312 45.347656 133.976562 C 46.527344 135.132812 47.253906 136.730469 47.253906 138.492188 C 47.253906 140.558594 45.605469 142.546875 43.84375 144.671875 C 42.792969 145.933594 41.707031 147.246094 40.917969 148.632812 C 40.863281 148.730469 40.734375 148.765625 40.636719 148.714844 C 40.601562 148.695312 40.574219 148.664062 40.554688 148.632812 Z M 40.554688 148.632812 " fill-opacity="1" fill-rule="evenodd"/><path fill="#c24441" d="M 40.738281 143.265625 C 39.394531 143.265625 38.175781 142.730469 37.296875 141.867188 C 36.414062 141.003906 35.867188 139.8125 35.867188 138.492188 C 35.867188 137.175781 36.414062 135.984375 37.296875 135.121094 C 38.175781 134.257812 39.394531 133.722656 40.738281 133.722656 C 42.082031 133.722656 43.296875 134.257812 44.179688 135.121094 C 45.058594 135.984375 45.605469 137.175781 45.605469 138.492188 C 45.605469 139.8125 45.058594 141.003906 44.179688 141.867188 C 43.296875 142.730469 42.082031 143.265625 40.738281 143.265625 Z M 40.738281 143.265625 " fill-opacity="1" fill-rule="evenodd"/><path fill="#ffffff" d="M 37.871094 141.300781 C 38.605469 142.019531 39.617188 142.464844 40.738281 142.464844 C 41.855469 142.464844 42.867188 142.019531 43.601562 141.300781 C 44.332031 140.582031 44.789062 139.589844 44.789062 138.492188 C 44.789062 137.398438 44.335938 136.40625 43.601562 135.6875 C 42.867188 134.96875 41.855469 134.523438 40.738281 134.523438 C 39.617188 134.523438 38.605469 134.96875 37.871094 135.6875 C 37.140625 136.40625 36.6875 137.398438 36.6875 138.492188 C 36.6875 139.589844 37.140625 140.582031 37.871094 141.300781 Z M 37.871094 141.300781 " fill-opacity="1" fill-rule="evenodd"/><g clip-path="url(#2f14b7e692)"><path fill="#f0f0f0" d="M 126.875 207.378906 C 124.949219 207.378906 123.125 207.117188 121.734375 206.640625 C 120.015625 206.054688 119.070312 205.140625 119.070312 204.070312 C 119.070312 203.417969 119.417969 202.484375 121.078125 201.75 C 121.695312 201.476562 122.433594 201.253906 123.28125 201.089844 C 123.238281 201.035156 123.195312 200.984375 123.152344 200.933594 C 121.304688 198.707031 119.558594 196.609375 119.558594 194.261719 C 119.558594 192.347656 120.320312 190.546875 121.703125 189.191406 C 123.082031 187.835938 124.921875 187.09375 126.875 187.09375 C 128.828125 187.09375 130.667969 187.835938 132.046875 189.191406 C 133.429688 190.546875 134.191406 192.347656 134.191406 194.261719 C 134.191406 196.605469 132.445312 198.707031 130.601562 200.929688 C 130.601562 200.929688 130.511719 201.039062 130.46875 201.089844 C 131.316406 201.253906 132.054688 201.476562 132.675781 201.753906 C 134.332031 202.488281 134.683594 203.417969 134.683594 204.070312 C 134.683594 205.140625 133.734375 206.054688 132.015625 206.644531 C 130.625 207.117188 128.800781 207.378906 126.875 207.378906 Z M 126.875 207.378906 " fill-opacity="1" fill-rule="evenodd"/><path fill="#ffffff" d="M 132.566406 201.988281 C 131.863281 201.675781 130.980469 201.429688 129.980469 201.265625 C 130.117188 201.097656 130.253906 200.933594 130.390625 200.773438 L 130.394531 200.765625 C 132.210938 198.578125 133.925781 196.511719 133.925781 194.261719 C 133.925781 192.414062 133.191406 190.679688 131.859375 189.375 C 130.527344 188.070312 128.757812 187.351562 126.875 187.351562 C 124.992188 187.351562 123.222656 188.070312 121.890625 189.375 C 120.558594 190.679688 119.824219 192.417969 119.824219 194.261719 C 119.824219 196.515625 121.542969 198.582031 123.355469 200.769531 C 123.492188 200.929688 123.628906 201.097656 123.769531 201.265625 C 122.769531 201.433594 121.886719 201.679688 121.183594 201.988281 C 119.65625 202.664062 119.335938 203.492188 119.335938 204.070312 C 119.335938 205.023438 120.21875 205.847656 121.824219 206.398438 C 123.183594 206.863281 124.980469 207.121094 126.875 207.121094 C 128.769531 207.121094 130.566406 206.863281 131.929688 206.398438 C 133.53125 205.847656 134.417969 205.019531 134.417969 204.070312 C 134.417969 203.492188 134.09375 202.664062 132.566406 201.988281 Z M 132.566406 201.988281 " fill-opacity="1" fill-rule="evenodd"/></g><g clip-path="url(#756d9f4e3c)"><path fill="#71c285" d="M 128.386719 201.804688 C 128.386719 201.804688 128.386719 201.800781 128.386719 201.796875 C 128.398438 201.6875 128.5 201.605469 128.613281 201.613281 C 130.113281 201.75 131.421875 202.050781 132.347656 202.460938 C 133.3125 202.890625 133.886719 203.445312 133.886719 204.070312 C 133.886719 204.808594 133.070312 205.453125 131.753906 205.90625 C 130.5 206.335938 128.777344 206.597656 126.875 206.597656 C 124.976562 206.597656 123.25 206.335938 121.996094 205.90625 C 120.679688 205.457031 119.867188 204.808594 119.867188 204.070312 C 119.867188 203.445312 120.441406 202.890625 121.402344 202.460938 C 122.332031 202.050781 123.636719 201.75 125.140625 201.613281 C 125.253906 201.605469 125.355469 201.6875 125.363281 201.796875 C 125.363281 201.800781 125.363281 201.804688 125.363281 201.804688 Z M 128.386719 201.804688 " fill-opacity="1" fill-rule="evenodd"/></g><g clip-path="url(#b52202c806)"><path fill="#ef5350" d="M 126.695312 204.402344 C 125.90625 203.011719 124.816406 201.703125 123.769531 200.4375 C 122.007812 198.316406 120.355469 196.328125 120.355469 194.261719 C 120.355469 192.496094 121.085938 190.898438 122.265625 189.742188 C 123.445312 188.585938 125.074219 187.871094 126.875 187.871094 C 128.675781 187.871094 130.304688 188.585938 131.484375 189.742188 C 132.664062 190.898438 133.394531 192.496094 133.394531 194.261719 C 133.394531 196.328125 131.746094 198.316406 129.980469 200.4375 C 128.933594 201.703125 127.84375 203.011719 127.054688 204.402344 C 127 204.5 126.875 204.535156 126.773438 204.480469 C 126.738281 204.460938 126.710938 204.433594 126.695312 204.402344 Z M 126.695312 204.402344 " fill-opacity="1" fill-rule="evenodd"/></g><path fill="#c24441" d="M 126.875 199.03125 C 125.53125 199.03125 124.316406 198.5 123.433594 197.636719 C 122.554688 196.773438 122.007812 195.578125 122.007812 194.261719 C 122.007812 192.945312 122.554688 191.75 123.433594 190.886719 C 124.316406 190.023438 125.53125 189.492188 126.875 189.492188 C 128.21875 189.492188 129.4375 190.023438 130.316406 190.886719 C 131.199219 191.75 131.742188 192.945312 131.742188 194.261719 C 131.742188 195.578125 131.199219 196.773438 130.316406 197.636719 C 129.4375 198.5 128.21875 199.03125 126.875 199.03125 Z M 126.875 199.03125 " fill-opacity="1" fill-rule="evenodd"/><path fill="#ffffff" d="M 124.011719 197.070312 C 124.746094 197.789062 125.757812 198.234375 126.875 198.234375 C 127.996094 198.234375 129.007812 197.789062 129.738281 197.070312 C 130.472656 196.351562 130.925781 195.359375 130.925781 194.261719 C 130.925781 193.167969 130.472656 192.171875 129.738281 191.453125 C 129.007812 190.738281 127.996094 190.292969 126.875 190.292969 C 125.757812 190.292969 124.746094 190.734375 124.011719 191.453125 C 123.277344 192.171875 122.824219 193.167969 122.824219 194.261719 C 122.824219 195.359375 123.277344 196.351562 124.011719 197.070312 Z M 124.011719 197.070312 " fill-opacity="1" fill-rule="evenodd"/><g clip-path="url(#6a8cbe7e99)"><path fill="#f0f0f0" d="M 157.375 132.703125 C 155.449219 132.703125 153.621094 132.441406 152.234375 131.964844 C 150.515625 131.378906 149.570312 130.464844 149.570312 129.390625 C 149.570312 128.738281 149.917969 127.808594 151.574219 127.074219 C 152.195312 126.800781 152.933594 126.578125 153.78125 126.410156 C 153.738281 126.359375 153.691406 126.308594 153.648438 126.253906 C 151.804688 124.03125 150.058594 121.929688 150.058594 119.585938 C 150.058594 117.671875 150.820312 115.871094 152.199219 114.515625 C 153.582031 113.160156 155.417969 112.414062 157.375 112.414062 C 159.328125 112.414062 161.164062 113.160156 162.546875 114.515625 C 163.929688 115.867188 164.6875 117.667969 164.6875 119.585938 C 164.6875 121.929688 162.945312 124.03125 161.097656 126.253906 C 161.097656 126.253906 161.011719 126.359375 160.96875 126.410156 C 161.8125 126.578125 162.554688 126.800781 163.175781 127.074219 C 164.832031 127.808594 165.179688 128.742188 165.179688 129.390625 C 165.179688 130.464844 164.234375 131.378906 162.515625 131.964844 C 161.125 132.441406 159.296875 132.703125 157.375 132.703125 Z M 157.375 132.703125 " fill-opacity="1" fill-rule="evenodd"/></g><g clip-path="url(#b84423ea7a)"><path fill="#ffffff" d="M 163.066406 127.3125 C 162.363281 127 161.480469 126.753906 160.480469 126.585938 C 160.617188 126.421875 160.753906 126.257812 160.886719 126.097656 L 160.894531 126.089844 C 162.707031 123.902344 164.421875 121.835938 164.421875 119.585938 C 164.421875 117.738281 163.691406 116.003906 162.359375 114.699219 C 161.027344 113.394531 159.257812 112.675781 157.375 112.675781 C 155.492188 112.675781 153.71875 113.394531 152.386719 114.699219 C 151.058594 116.003906 150.324219 117.738281 150.324219 119.585938 C 150.324219 121.835938 152.039062 123.902344 153.855469 126.089844 C 153.992188 126.253906 154.128906 126.421875 154.265625 126.585938 C 153.265625 126.753906 152.386719 127 151.683594 127.3125 C 150.15625 127.988281 149.832031 128.816406 149.832031 129.390625 C 149.832031 130.34375 150.71875 131.171875 152.320312 131.71875 C 153.683594 132.1875 155.476562 132.441406 157.375 132.441406 C 159.269531 132.441406 161.0625 132.1875 162.425781 131.71875 C 164.03125 131.171875 164.914062 130.34375 164.914062 129.390625 C 164.914062 128.816406 164.59375 127.988281 163.066406 127.3125 Z M 163.066406 127.3125 " fill-opacity="1" fill-rule="evenodd"/></g><path fill="#71c285" d="M 158.886719 127.128906 C 158.886719 127.125 158.886719 127.125 158.886719 127.121094 C 158.894531 127.011719 158.996094 126.925781 159.109375 126.9375 C 160.613281 127.070312 161.917969 127.375 162.847656 127.785156 C 163.808594 128.210938 164.382812 128.769531 164.382812 129.390625 C 164.382812 130.128906 163.570312 130.777344 162.253906 131.230469 C 161 131.65625 159.273438 131.921875 157.375 131.921875 C 155.472656 131.921875 153.75 131.65625 152.496094 131.230469 C 151.179688 130.777344 150.363281 130.128906 150.363281 129.390625 C 150.363281 128.769531 150.9375 128.210938 151.902344 127.785156 C 152.828125 127.375 154.136719 127.070312 155.636719 126.9375 C 155.75 126.925781 155.851562 127.007812 155.863281 127.121094 C 155.863281 127.125 155.863281 127.125 155.863281 127.128906 Z M 158.886719 127.128906 " fill-opacity="1" fill-rule="evenodd"/><path fill="#ef5350" d="M 157.191406 129.722656 C 156.40625 128.335938 155.316406 127.023438 154.265625 125.761719 C 152.503906 123.640625 150.855469 121.652344 150.855469 119.585938 C 150.855469 117.820312 151.585938 116.222656 152.765625 115.066406 C 153.945312 113.910156 155.574219 113.195312 157.375 113.195312 C 159.175781 113.195312 160.804688 113.910156 161.984375 115.066406 C 163.164062 116.222656 163.894531 117.820312 163.894531 119.585938 C 163.894531 121.652344 162.242188 123.640625 160.480469 125.761719 C 159.433594 127.023438 158.34375 128.335938 157.554688 129.726562 C 157.5 129.824219 157.371094 129.859375 157.273438 129.804688 C 157.238281 129.785156 157.210938 129.757812 157.191406 129.722656 Z M 157.191406 129.722656 " fill-opacity="1" fill-rule="evenodd"/><path fill="#c24441" d="M 157.375 124.355469 C 156.03125 124.355469 154.8125 123.820312 153.933594 122.957031 C 153.050781 122.09375 152.507812 120.902344 152.507812 119.585938 C 152.507812 118.265625 153.050781 117.074219 153.933594 116.210938 C 154.8125 115.347656 156.03125 114.8125 157.375 114.8125 C 158.71875 114.8125 159.9375 115.347656 160.816406 116.210938 C 161.695312 117.074219 162.242188 118.265625 162.242188 119.585938 C 162.242188 120.902344 161.695312 122.09375 160.816406 122.957031 C 159.9375 123.820312 158.71875 124.355469 157.375 124.355469 Z M 157.375 124.355469 " fill-opacity="1" fill-rule="evenodd"/><path fill="#ffffff" d="M 154.511719 122.394531 C 155.242188 123.109375 156.253906 123.554688 157.375 123.554688 C 158.492188 123.554688 159.503906 123.113281 160.238281 122.394531 C 160.972656 121.675781 161.425781 120.683594 161.425781 119.585938 C 161.425781 118.488281 160.972656 117.496094 160.238281 116.777344 C 159.503906 116.058594 158.492188 115.613281 157.375 115.613281 C 156.253906 115.613281 155.242188 116.058594 154.511719 116.777344 C 153.777344 117.496094 153.324219 118.488281 153.324219 119.585938 C 153.324219 120.679688 153.777344 121.675781 154.511719 122.394531 Z M 154.511719 122.394531 " fill-opacity="1" fill-rule="evenodd"/><g clip-path="url(#316736f208)"><path fill="#f0f0f0" d="M 88.265625 100.199219 C 86.339844 100.199219 84.511719 99.9375 83.125 99.460938 C 81.40625 98.875 80.460938 97.960938 80.460938 96.886719 C 80.460938 96.234375 80.808594 95.304688 82.464844 94.570312 C 83.085938 94.296875 83.824219 94.074219 84.671875 93.90625 C 84.628906 93.855469 84.582031 93.804688 84.539062 93.75 C 82.695312 91.527344 80.949219 89.425781 80.949219 87.082031 C 80.949219 85.167969 81.710938 83.367188 83.089844 82.011719 C 84.472656 80.65625 86.308594 79.910156 88.265625 79.910156 C 90.21875 79.910156 92.054688 80.65625 93.4375 82.011719 C 94.820312 83.367188 95.578125 85.167969 95.578125 87.082031 C 95.578125 89.425781 93.835938 91.527344 91.988281 93.75 C 91.988281 93.75 91.902344 93.855469 91.859375 93.90625 C 92.703125 94.074219 93.445312 94.296875 94.066406 94.570312 C 95.722656 95.304688 96.070312 96.238281 96.070312 96.886719 C 96.070312 97.960938 95.125 98.875 93.40625 99.460938 C 92.015625 99.9375 90.1875 100.199219 88.265625 100.199219 Z M 88.265625 100.199219 " fill-opacity="1" fill-rule="evenodd"/></g><g clip-path="url(#cb94dfed07)"><path fill="#ffffff" d="M 93.957031 94.808594 C 93.253906 94.496094 92.371094 94.25 91.371094 94.082031 C 91.507812 93.917969 91.644531 93.753906 91.777344 93.59375 L 91.785156 93.585938 C 93.597656 91.398438 95.3125 89.332031 95.3125 87.082031 C 95.3125 85.234375 94.582031 83.5 93.25 82.195312 C 91.917969 80.890625 90.148438 80.171875 88.265625 80.171875 C 86.382812 80.171875 84.609375 80.890625 83.277344 82.195312 C 81.949219 83.5 81.214844 85.234375 81.214844 87.082031 C 81.214844 89.335938 82.929688 91.398438 84.746094 93.585938 C 84.882812 93.75 85.019531 93.917969 85.15625 94.085938 C 84.15625 94.25 83.277344 94.496094 82.574219 94.808594 C 81.046875 95.484375 80.726562 96.3125 80.726562 96.886719 C 80.726562 97.839844 81.609375 98.667969 83.210938 99.214844 C 84.574219 99.683594 86.367188 99.9375 88.265625 99.9375 C 90.160156 99.9375 91.953125 99.683594 93.316406 99.214844 C 94.921875 98.667969 95.804688 97.839844 95.804688 96.886719 C 95.804688 96.3125 95.484375 95.484375 93.957031 94.808594 Z M 93.957031 94.808594 " fill-opacity="1" fill-rule="evenodd"/></g><path fill="#71c285" d="M 89.777344 94.625 C 89.777344 94.621094 89.777344 94.621094 89.777344 94.617188 C 89.785156 94.507812 89.886719 94.425781 90 94.433594 C 91.503906 94.566406 92.808594 94.871094 93.738281 95.28125 C 94.699219 95.707031 95.273438 96.265625 95.273438 96.886719 C 95.273438 97.625 94.460938 98.273438 93.144531 98.726562 C 91.890625 99.152344 90.164062 99.417969 88.265625 99.417969 C 86.363281 99.417969 84.640625 99.152344 83.386719 98.726562 C 82.070312 98.273438 81.253906 97.625 81.253906 96.886719 C 81.253906 96.265625 81.828125 95.707031 82.792969 95.28125 C 83.71875 94.871094 85.027344 94.566406 86.527344 94.433594 C 86.640625 94.425781 86.742188 94.507812 86.753906 94.617188 C 86.753906 94.621094 86.753906 94.621094 86.753906 94.625 Z M 89.777344 94.625 " fill-opacity="1" fill-rule="evenodd"/><path fill="#ef5350" d="M 88.082031 97.222656 C 87.296875 95.832031 86.207031 94.519531 85.15625 93.257812 C 83.394531 91.136719 81.746094 89.148438 81.746094 87.082031 C 81.746094 85.316406 82.476562 83.71875 83.65625 82.5625 C 84.835938 81.40625 86.464844 80.691406 88.265625 80.691406 C 90.066406 80.691406 91.695312 81.40625 92.875 82.5625 C 94.054688 83.71875 94.785156 85.316406 94.785156 87.082031 C 94.785156 89.148438 93.132812 91.136719 91.371094 93.257812 C 90.324219 94.523438 89.234375 95.832031 88.445312 97.222656 C 88.390625 97.320312 88.265625 97.355469 88.164062 97.300781 C 88.128906 97.28125 88.101562 97.253906 88.082031 97.222656 Z M 88.082031 97.222656 " fill-opacity="1" fill-rule="evenodd"/><path fill="#c24441" d="M 88.265625 91.851562 C 86.921875 91.851562 85.703125 91.320312 84.824219 90.453125 C 83.941406 89.589844 83.398438 88.398438 83.398438 87.082031 C 83.398438 85.765625 83.941406 84.570312 84.824219 83.707031 C 85.703125 82.84375 86.921875 82.308594 88.265625 82.308594 C 89.609375 82.308594 90.828125 82.84375 91.707031 83.707031 C 92.585938 84.570312 93.132812 85.765625 93.132812 87.082031 C 93.132812 88.398438 92.585938 89.589844 91.707031 90.453125 C 90.828125 91.320312 89.609375 91.851562 88.265625 91.851562 Z M 88.265625 91.851562 " fill-opacity="1" fill-rule="evenodd"/><path fill="#ffffff" d="M 85.402344 89.890625 C 86.132812 90.605469 87.144531 91.050781 88.265625 91.050781 C 89.382812 91.050781 90.394531 90.609375 91.128906 89.890625 C 91.863281 89.171875 92.316406 88.179688 92.316406 87.082031 C 92.316406 85.984375 91.863281 84.992188 91.128906 84.273438 C 90.394531 83.554688 89.382812 83.109375 88.265625 83.109375 C 87.144531 83.109375 86.132812 83.554688 85.402344 84.273438 C 84.667969 84.992188 84.214844 85.984375 84.214844 87.082031 C 84.214844 88.175781 84.667969 89.171875 85.402344 89.890625 Z M 85.402344 89.890625 " fill-opacity="1" fill-rule="evenodd"/></svg>